<svg xmlns="http://www.w3.org/2000/svg" viewBox="0 0 179.42 116.42"><defs><style>.cls-1{fill:#fff;stroke:#000;stroke-miterlimit:10;}</style></defs><title>bubble</title><g id="Layer_2" data-name="Layer 2"><g id="Sun"><path class="cls-1" d="M143.42,84.71H110.7l-14.49,30.8-26.7-30.8H36C16.39,84.71.5,71.8.5,55.88V29.34C.5,13.41,16.39.5,36,.5H143.42c19.6,0,35.5,12.91,35.5,28.84V55.88C178.92,71.8,163,84.71,143.42,84.71Z"/><path d="M22.89,30.69v5.68h6.55V30.69h1.77V44.25H29.44V37.89H22.89v6.36H21.13V30.69Z"/><path d="M39.59,44.25,39.45,43h-.06a3.63,3.63,0,0,1-3,1.45,2.78,2.78,0,0,1-3-2.79c0-2.36,2.09-3.65,5.86-3.63v-.2a2,2,0,0,0-2.22-2.25,4.86,4.86,0,0,0-2.53.72l-.4-1.16a6,6,0,0,1,3.19-.87c3,0,3.7,2,3.7,4v3.64a14.87,14.87,0,0,0,.16,2.33Zm-.27-5c-1.93,0-4.12.3-4.12,2.19a1.57,1.57,0,0,0,1.67,1.69,2.41,2.41,0,0,0,2.35-1.63,1.58,1.58,0,0,0,.1-.56Z"/><path d="M44.42,34.52,46.33,40a26,26,0,0,1,.78,2.5h.07c.22-.8.5-1.61.82-2.5l1.89-5.46h1.85l-3.82,9.73H46.23l-3.7-9.73Z"/><path d="M54.2,39.7a3.12,3.12,0,0,0,3.34,3.38,6.42,6.42,0,0,0,2.69-.5l.3,1.27a7.9,7.9,0,0,1-3.23.6c-3,0-4.79-2-4.79-4.91s1.73-5.25,4.57-5.25c3.17,0,4,2.8,4,4.59a6.64,6.64,0,0,1-.06.82Zm5.19-1.26c0-1.13-.47-2.88-2.46-2.88-1.79,0-2.57,1.65-2.71,2.88Z"/><path d="M73,44.25,72.81,43h-.06a3.61,3.61,0,0,1-3,1.45,2.77,2.77,0,0,1-3-2.79c0-2.36,2.09-3.65,5.85-3.63v-.2a2,2,0,0,0-2.21-2.25,4.89,4.89,0,0,0-2.54.72l-.4-1.16a6.06,6.06,0,0,1,3.2-.87c3,0,3.7,2,3.7,4v3.64a13.75,13.75,0,0,0,.16,2.33Zm-.26-5c-1.93,0-4.12.3-4.12,2.19a1.56,1.56,0,0,0,1.67,1.69,2.42,2.42,0,0,0,2.35-1.63,1.84,1.84,0,0,0,.1-.56Z"/><path d="M89.91,34.52c0,.7-.08,1.48-.08,2.67v5.65c0,2.23-.44,3.6-1.39,4.45a5.16,5.16,0,0,1-3.53,1.16,6.3,6.3,0,0,1-3.24-.8l.44-1.35a5.51,5.51,0,0,0,2.86.76c1.81,0,3.13-.94,3.13-3.39V42.58h0A3.48,3.48,0,0,1,85,44.21c-2.42,0-4.15-2.05-4.15-4.75,0-3.3,2.16-5.17,4.39-5.17a3.23,3.23,0,0,1,3,1.69h0l.08-1.46Zm-1.83,3.84a2.59,2.59,0,0,0-2.57-2.68c-1.69,0-2.9,1.43-2.9,3.68,0,1.91,1,3.5,2.88,3.5a2.58,2.58,0,0,0,2.45-1.81,3.06,3.06,0,0,0,.14-.94Z"/><path d="M92.66,37.55c0-1.14,0-2.13-.09-3h1.55l.06,1.91h.08A2.94,2.94,0,0,1,97,34.29a1.9,1.9,0,0,1,.5.06V36a2.64,2.64,0,0,0-.6-.06,2.5,2.5,0,0,0-2.38,2.28,6.33,6.33,0,0,0-.08.82v5.19H92.66Z"/><path d="M100,39.7a3.12,3.12,0,0,0,3.34,3.38,6.38,6.38,0,0,0,2.69-.5l.3,1.27a7.9,7.9,0,0,1-3.23.6c-3,0-4.79-2-4.79-4.91s1.73-5.25,4.57-5.25c3.17,0,4,2.8,4,4.59a6.64,6.64,0,0,1-.06.82Zm5.19-1.26c0-1.13-.47-2.88-2.45-2.88-1.79,0-2.58,1.65-2.72,2.88Z"/><path d="M114.51,44.25,114.36,43h-.06a3.59,3.59,0,0,1-3,1.45,2.78,2.78,0,0,1-3-2.79c0-2.36,2.09-3.65,5.85-3.63v-.2A2,2,0,0,0,112,35.6a4.86,4.86,0,0,0-2.53.72l-.4-1.16a6,6,0,0,1,3.19-.87c3,0,3.7,2,3.7,4v3.64a13.75,13.75,0,0,0,.16,2.33Zm-.27-5c-1.93,0-4.12.3-4.12,2.19a1.56,1.56,0,0,0,1.67,1.69,2.41,2.41,0,0,0,2.35-1.63,1.84,1.84,0,0,0,.1-.56Z"/><path d="M120.87,31.72v2.8h2.53v1.34h-2.53v5.25c0,1.21.34,1.89,1.32,1.89a3.94,3.94,0,0,0,1-.12l.08,1.33a4.33,4.33,0,0,1-1.57.24,2.46,2.46,0,0,1-1.91-.74,3.64,3.64,0,0,1-.68-2.54V35.86h-1.51V34.52h1.51V32.18Z"/><path d="M138.07,30V41.74c0,.86,0,1.85.08,2.51h-1.59l-.08-1.69h0a3.59,3.59,0,0,1-3.32,1.91c-2.35,0-4.16-2-4.16-4.95,0-3.23,2-5.23,4.36-5.23a3.27,3.27,0,0,1,2.94,1.49h0V30Zm-1.77,8.51a3.19,3.19,0,0,0-.08-.75,2.61,2.61,0,0,0-2.56-2c-1.83,0-2.91,1.61-2.91,3.76,0,2,1,3.6,2.87,3.6a2.66,2.66,0,0,0,2.6-2.11,3.06,3.06,0,0,0,.08-.76Z"/><path d="M146.4,44.25,146.26,43h-.06a3.61,3.61,0,0,1-3,1.45,2.77,2.77,0,0,1-3-2.79c0-2.36,2.09-3.65,5.85-3.63v-.2a2,2,0,0,0-2.21-2.25,4.89,4.89,0,0,0-2.54.72l-.4-1.16a6.06,6.06,0,0,1,3.2-.87c3,0,3.7,2,3.7,4v3.64a13.75,13.75,0,0,0,.16,2.33Zm-.26-5c-1.93,0-4.12.3-4.12,2.19a1.56,1.56,0,0,0,1.67,1.69A2.42,2.42,0,0,0,146,41.53a1.84,1.84,0,0,0,.1-.56Z"/><path d="M151.19,34.52l2.13,5.75c.23.64.47,1.41.63,2h0c.18-.58.38-1.33.62-2l1.93-5.71h1.87l-2.65,6.93c-1.27,3.34-2.13,5-3.34,6.1a4.79,4.79,0,0,1-2.17,1.14l-.44-1.48a4.89,4.89,0,0,0,1.54-.87,5.29,5.29,0,0,0,1.49-2A1.26,1.26,0,0,0,153,44a1.65,1.65,0,0,0-.12-.47l-3.6-9Z"/><path d="M159.69,43.22A1.17,1.17,0,0,1,160.87,42a1.15,1.15,0,0,1,1.19,1.24,1.19,1.19,0,1,1-2.37,0Zm.5-2.87-.28-9.66h1.93l-.28,9.66Z"/></g></g></svg>