<svg xmlns="http://www.w3.org/2000/svg" viewBox="0 0 121.14 121.14"><defs><style>.cls-1{fill:#e05c64;}.cls-1,.cls-3{stroke:#000;stroke-miterlimit:10;}.cls-2,.cls-3{fill:#fff;}</style></defs><title>kid</title><g id="Layer_2" data-name="Layer 2"><g id="Sun"><circle class="cls-1" cx="60.57" cy="60.57" r="60.07"/><path d="M31,25.51h9.8c1.79,0,3.17,1.17,3,2.49L43,32.92a2.81,2.81,0,0,1-3,2H31.85a2.82,2.82,0,0,1-3-1.93L28,28C27.78,26.7,29.17,25.51,31,25.51Z"/><polygon class="cls-2" points="31.53 31.23 30.04 31.23 31.89 26.76 33.38 26.76 31.53 31.23"/><polygon class="cls-2" points="33.79 31.23 32.3 31.23 34.15 26.76 35.64 26.76 33.79 31.23"/><path d="M51.25,25.51h9.81c1.78,0,3.17,1.17,3,2.49l-.78,4.92a2.82,2.82,0,0,1-3,2H52.13a2.82,2.82,0,0,1-3-1.93L48.29,28C48.06,26.7,49.45,25.51,51.25,25.51Z"/><polygon class="cls-2" points="51.8 31.23 50.31 31.23 52.17 26.76 53.66 26.76 51.8 31.23"/><polygon class="cls-2" points="54.06 31.23 52.57 31.23 54.43 26.76 55.92 26.76 54.06 31.23"/><path class="cls-3" d="M49.13,40.93a4.6,4.6,0,0,1-9.19,0Z"/></g></g></svg>