<svg xmlns="http://www.w3.org/2000/svg" viewBox="0 0 255.88 255.88"><defs><style>.cls-1{fill:#fce74e;}.cls-1,.cls-2{stroke:#000;stroke-miterlimit:10;}.cls-2{fill:#ee7442;}</style></defs><title>sun</title><g id="Layer_2" data-name="Layer 2"><g id="Sun"><path class="cls-1" d="M181,.93a57.9,57.9,0,0,0,74,74l.29.69a57.89,57.89,0,0,0,0,104.64L255,181a57.9,57.9,0,0,0-74,74l-.69.29a57.89,57.89,0,0,0-104.64,0l-.69-.29a57.9,57.9,0,0,0-74-74l-.29-.69a57.87,57.87,0,0,0,33.11-52.32A57.87,57.87,0,0,0,.64,75.62l.29-.69a57.9,57.9,0,0,0,74-74l.69-.29a57.87,57.87,0,0,0,52.32,33.11A57.87,57.87,0,0,0,180.26.64"/><circle class="cls-2" cx="127.94" cy="127.94" r="76.17"/></g></g></svg>