<svg xmlns="http://www.w3.org/2000/svg" viewBox="0 0 272.75 178.52"><defs><style>.cls-1{fill:#fff;}.cls-2{fill:none;stroke:#000;stroke-miterlimit:10;}</style></defs><title>book-1</title><g id="Layer_2" data-name="Layer 2"><g id="Book"><polygon points="272.75 134.64 136.25 178.52 136.25 55.89 272.75 12.01 272.75 134.64"/><polygon points="0.25 134.64 136.75 178.52 136.75 55.89 0.25 12.01 0.25 134.64"/><polygon class="cls-1" points="136.5 44.24 272 0.69 272 122.26 136.5 165.82 136.5 44.24"/><path d="M271.5,1.37V121.9L137,165.13V44.61L271.5,1.37m1-1.37L136,43.88V166.51l136.5-43.88V0Z"/><polygon class="cls-1" points="0.5 122.26 0.5 0.69 136 44.24 136 165.82 0.5 122.26"/><path d="M1,1.37,135.5,44.61V165.13L1,121.9V1.37M0,0V122.63l136.5,43.88V43.88L0,0Z"/><line class="cls-2" x1="145.53" y1="149.1" x2="256.88" y2="112.85"/><line class="cls-2" x1="145.53" y1="131.51" x2="256.88" y2="95.27"/><line class="cls-2" x1="145.53" y1="113.93" x2="256.88" y2="77.68"/><line class="cls-2" x1="145.53" y1="96.34" x2="256.88" y2="60.1"/><line class="cls-2" x1="145.53" y1="78.76" x2="256.88" y2="42.51"/><line class="cls-2" x1="145.53" y1="61.17" x2="256.88" y2="24.93"/><line class="cls-2" x1="123.93" y1="148.41" x2="12.57" y2="112.16"/><line class="cls-2" x1="123.93" y1="130.82" x2="12.57" y2="94.58"/><line class="cls-2" x1="123.93" y1="113.24" x2="12.57" y2="76.99"/><line class="cls-2" x1="123.93" y1="95.65" x2="12.57" y2="59.41"/><line class="cls-2" x1="123.93" y1="78.07" x2="12.57" y2="41.82"/><line class="cls-2" x1="123.93" y1="60.48" x2="12.57" y2="24.24"/></g></g></svg>