<svg xmlns="http://www.w3.org/2000/svg" viewBox="0 0 593.81 737.11"><defs><style>.cls-1{fill:#e8d6c0;}.cls-2{fill:#518266;}.cls-3{fill:#fff;}.cls-4{fill:#e9a222;}.cls-5{font-size:35.59px;font-family:AvenirNextCondensed-DemiBold, Avenir Next Condensed;}.cls-11,.cls-18,.cls-5{fill:#010101;}.cls-11,.cls-5{font-weight:300;}.cls-6{letter-spacing:-0.04em;}.cls-7{letter-spacing:0.02em;}.cls-8{letter-spacing:0em;}.cls-9{letter-spacing:-0.02em;}.cls-10{letter-spacing:-0.01em;}.cls-11,.cls-19{font-size:12px;}.cls-11{font-family:AvenirNext-DemiBold, Avenir Next;letter-spacing:-0.05em;}.cls-12{letter-spacing:0.02em;}.cls-13{letter-spacing:0.05em;}.cls-14{letter-spacing:0.04em;}.cls-15{letter-spacing:0.03em;}.cls-16{letter-spacing:0.04em;}.cls-17{letter-spacing:0.05em;}.cls-19{fill:#231f20;font-family:MyriadPro-Regular, Myriad Pro;}.cls-20{letter-spacing:0em;}.cls-21{letter-spacing:-0.01em;}.cls-22{letter-spacing:0.01em;}.cls-23{letter-spacing:0em;}</style></defs><title>Asset 34</title><g id="Layer_2" data-name="Layer 2"><g id="drawing_V2"><rect class="cls-1" x="33.53" y="89.28" width="432" height="647.83"/><path class="cls-2" d="M474.68,90.39l-.29,456c-12.8,66.62-84.48,124.78-98.15,132.16-18.13,9.78-28.93,13.92-25.16,8.75C363.17,670.74,374,663.49,404,575c51.6-152.29,38.79-322-46.48-375.45-57.4-36-158.67-29.06-211,10.32-52.14,39.23-57.41,119.91-55.8,147.06,1.7,28.66,30.91,40.42,30,45.48-.91,5.25-61.55-21.25-78.37-58.2l.29-253.81Z" transform="translate(-8.85 -1.28)"/><path class="cls-3" d="M381.08,381.21c-20.77,26.32-42.11,25.87-52.61,40,.42.28.66.48.66.48-7.88,9.34,5,16.39,5,16.39s-6.65-.32-11.24-3.2c-.13.66-.25,1.35-.35,2.06-4.73,32.11,18.2,46.2,17.59,49-2.29,10.5-22.57,27.2-48.62,44.16-40.77,26.56-91.19,45.76-88.6,38,10.45-31.37,23.38-43.54,24.22-52.83,2-22-17.22-53-33.53-63.63-11.07-7.25-44.39,2.84-51.47-4.73s-2.84-16.52-1.42-20.77-1.89-4.26-3.78-10.86,7.09-4.73,7.09-8.51-6.62-4.72-11.34-9.91,4.72-11.34,2.83-15.59-14.88-10.83-14.88-16.64c0-5.41,5.41-7.11,9.14-11.1,4.49-4.81,9.39-10,12.6-15.1a24,24,0,0,1-4.89-.46c-4.28-.83-16.87-6.62-6.28-3.51,7.07,2.09,11.63,0,13.87-1.56a15.07,15.07,0,0,0,.84-4.4c.23-9.45-7.7-8.32-7.56-19.65.26-20.74,31.52-76.15,63.76-85.8s52.55-12.42,61.26-12.13c9.93.33,6.74.71,14.77,1.27,75.09,5.25,97.77,47.23,106.26,62.34S407.53,347.68,381.08,381.21Z" transform="translate(-8.85 -1.28)"/><path class="cls-4" d="M282.27,212S379.1,382,362,399.07c-6.84,6.84-27,14.2-33.14,22.62-4.7,6.41-157.74-109.53-173.69-154.17-2.65-7.41,20.39-34.33,39.54-45.82C211.51,211.61,259.61,203.5,282.27,212Z" transform="translate(-8.85 -1.28)"/><path class="cls-3" d="M97.75,205.52A25.81,25.81,0,0,1,110,219.05c2.43,6.54,3.56,13.9,4.9,21-3.71-4.51-6.54-7.28-10.13-8a24.48,24.48,0,0,0-3.45-9,18.38,18.38,0,0,0-7-6.26c-1.91,6-3,9.3-5.21,16a46,46,0,0,1,6.59,6.75,30,30,0,0,1,4.58,7,20.15,20.15,0,0,1,1.87,7.39,9.49,9.49,0,0,1-1.71,6.31A9.15,9.15,0,0,1,96,263.24a29.72,29.72,0,0,0-6.6,3.86c-2.69,2-5.87,5-8.65,6.72s-4.33.73-5.67,1.8c-.66,2.29-1,3.36-1.46,5.29-1.07,1.17-1.51,2.55-2.61,4.49.24-2,.4-3.2.8-5.68-2,2.57-4.85,2.45-5.85-5.39s-1.76-15.66-4.39-15.62c.95-2.3,1.63-2.93,2.3-3s1.3.46,2.15.55c.31,2,.69,4.16,1.21,6.21a12.75,12.75,0,0,0,2,4.79,2.65,2.65,0,0,0,2.67.82A4.64,4.64,0,0,0,74.12,267c1.47-7.32,2.38-11.43,4.19-19.62-2.18-.11-5,.24-7.15-1.52s-3.42-5.29-4.59-8.15-2.21-5.16-3.16-7.07a14.94,14.94,0,0,1-1.77-6.39,17.9,17.9,0,0,1,1.6-8.12,19.38,19.38,0,0,1,5-7c2.17-1.88,4.78-3.26,8.69-4.95a22.3,22.3,0,0,1,11.46-2c.39-2.31.55-3.38.79-5.32,4.11.77,6,1.61,10,3.7C98.65,202.43,98.37,203.42,97.75,205.52Zm-11.69,8.79a10.78,10.78,0,0,0-6.3,2.29,8.81,8.81,0,0,0-3.59,6.11c-.32,2.45.25,4.21,1.51,5.3a11.09,11.09,0,0,0,4.91,2.23C84.09,223.57,84.82,220.28,86.06,214.31ZM78.53,264.1c1.41-.57,2.77-.66,4.34-1.59a10.11,10.11,0,0,0,3.81-4.76,6.29,6.29,0,0,0,.21-5.45,8.57,8.57,0,0,0-3.27-4.12C81.47,254.81,80.4,258.1,78.53,264.1Z" transform="translate(-8.85 -1.28)"/><path class="cls-3" d="M231.31,102.39c14.58,10.36,10.91,17.32,2.71,31.54-7.4,12.85-18.86,26-24.65,40.87-1.48-9.72,2.85-19,2.68-24.44,4.54-5.83,9.44-12.67,11.21-19.37s-1.88-11.18-7.92-13.75c-8.18,7.43-16.46,14.76-24.73,22.09,4.76,3.89,6,9.81,4.51,15.29s-4.92,10.48-7.89,14.95-5.51,8.23-7.81,11.41-4.73,5.27-7.86,6.22-6,.54-9.11.48-6.79.77-11.72,3.31-11.15,6.89-16.3,9.14-6.68-.43-9.55-2.39c-3,2.9-4.28,4.21-6.42,6.48a28.23,28.23,0,0,0-7-3.74c1.67-2.5,2.7-3.91,5-7-5.07-2.16-8.56-4.15-9.69-16.78-.79-8.83-.34-19.28-5.41-27a9.75,9.75,0,0,1,9.23-1.09c2.87,1,5.62,2.77,8.63,4.06a75.83,75.83,0,0,0,.09,10,29.08,29.08,0,0,0,1.64,8.51,8.71,8.71,0,0,0,3.46,4,17.75,17.75,0,0,0,5.08,2.46c7.17-8.37,14.52-16.58,21.85-24.8-5.77-2.69-10.36-4.48-12.95-8.71s-3.56-10.35-4.34-15.38a83.35,83.35,0,0,1-1.15-12.29c0-3.26.95-6,3.33-9.49a32.25,32.25,0,0,1,9.85-9,36.49,36.49,0,0,1,13.24-5.05c4.71-.74,9.51-.52,16.11.22s16.7,1.6,27.45,3c2.24-2.87,3.22-4.19,4.83-6.54,9.73,1.26,20.36,3.18,29.53,6.87C235.27,98.53,234.06,99.74,231.31,102.39Zm-40.94,8.81a73,73,0,0,0-18.3.21c-5.23.8-8.12,2.65-10.33,5.76s-2.72,5.76-.85,8.06,5.65,4.27,11.46,6.18C180.05,122.92,183.82,118.74,190.37,111.2ZM141,182.56c3.18,1.69,5.23,3,8.73,2.29s7.11-2.84,10.92-5.74,6.22-5.51,6.94-8.62.63-6.94-2.26-9.88C157.23,167.89,149.09,175.18,141,182.56Z" transform="translate(-8.85 -1.28)"/><path class="cls-3" d="M82.77,285.3c2,1.2,4.26,3.5,6,7.54a65.47,65.47,0,0,1,4,13.1c-1.79-2.53-3.54-4.14-5.36-4.32a23.39,23.39,0,0,0-2.32-5.49A8.81,8.81,0,0,0,82,292.82c-.44,4-.7,6.21-1.22,10.67a30.56,30.56,0,0,1,3,3.67,21.51,21.51,0,0,1,2.6,4.09,13.43,13.43,0,0,1,1.22,4.54,8.48,8.48,0,0,1-.58,4.13,5.9,5.9,0,0,1-1.8,2.32,14.11,14.11,0,0,0-2.53,3.06c-1,1.54-2.1,3.72-3.1,5.11s-1.65.9-2.11,1.7c-.14,1.52-.2,2.23-.3,3.51a22.87,22.87,0,0,0-.79,3.12c0-1.33,0-2.08,0-3.69-.64,1.83-1.76,2-2.55-2.85s-1.47-9.79-2.49-9.5c.25-1.56.48-2,.74-2.12s.53.16.86.14c.23,1.23.48,2.57.79,3.83a10,10,0,0,0,1,2.85.74.74,0,0,0,1.08.26,2.16,2.16,0,0,0,.83-.92c.21-4.8.35-7.5.64-12.89-.85.14-1.92.64-2.86-.26s-1.59-3-2.19-4.73-1.12-3.07-1.59-4.19a13,13,0,0,1-1-3.89,18.92,18.92,0,0,1,.21-5.32,16.66,16.66,0,0,1,1.58-4.91,16.83,16.83,0,0,1,3.13-4A7,7,0,0,1,79,284.15c0-1.5,0-2.2,0-3.46a7.91,7.91,0,0,1,4.07,1.37C83,283.25,82.9,283.9,82.77,285.3ZM78.67,292a4.34,4.34,0,0,0-2.34,2.08,8,8,0,0,0-1.08,4.23,4.64,4.64,0,0,0,.85,3.23,3.08,3.08,0,0,0,2,.93C78.37,298.13,78.49,296,78.67,292Zm-.42,32.41a9.75,9.75,0,0,0,1.6-1.44,8.26,8.26,0,0,0,1.26-3.4,6.29,6.29,0,0,0-.2-3.49,4.73,4.73,0,0,0-1.48-2.3C78.93,318.25,78.68,320.45,78.25,324.45Z" transform="translate(-8.85 -1.28)"/><text class="cls-5" transform="translate(55.37 656.59)">T<tspan class="cls-6" x="13.52" y="0">H</tspan><tspan x="33.24" y="0">E GR</tspan><tspan class="cls-7" x="93.49" y="0">E</tspan><tspan class="cls-8" x="109.71" y="0">A</tspan><tspan class="cls-9" x="127.79" y="0">T</tspan><tspan x="140.46" y="0"> </tspan><tspan class="cls-7" x="147.4" y="0">G</tspan><tspan class="cls-8" x="167.65" y="0">A</tspan><tspan class="cls-7" x="185.73" y="0">T</tspan><tspan x="199.96" y="0">S</tspan><tspan class="cls-10" x="215.94" y="0">B</tspan><tspan class="cls-9" x="234.19" y="0">Y</tspan></text><text class="cls-11" transform="translate(195.98 682.44)">F<tspan class="cls-12" x="6.32" y="0">.</tspan><tspan class="cls-13" x="9.68" y="0" xml:space="preserve"> Sco</tspan><tspan class="cls-14" x="35.15" y="0">t</tspan><tspan class="cls-13" x="39.65" y="0">t </tspan><tspan class="cls-15" x="47.93" y="0">F</tspan><tspan class="cls-13" x="55.19" y="0">itzge</tspan><tspan class="cls-16" x="85.74" y="0">r</tspan><tspan class="cls-17" x="90.55" y="0">ald</tspan></text><path class="cls-3" d="M99.11,388.54a5.13,5.13,0,0,1,3.07-.32,21.94,21.94,0,0,1,4.31,1.14,2.66,2.66,0,0,0-2,.69,7.26,7.26,0,0,0-1.91-.31,2.67,2.67,0,0,0-1.42.27c1.07.78,1.65,1.22,2.83,2.1a9.79,9.79,0,0,1,1.5-.18,7.39,7.39,0,0,1,1.56,0,4.71,4.71,0,0,1,1.47.44,2.86,2.86,0,0,1,1.08.84,2,2,0,0,1,.38.86,4.89,4.89,0,0,0,.48,1.18c.28.51.73,1.17,1,1.66s0,.58.16.84l.94.67a9.45,9.45,0,0,0,.76.72c-.38-.22-.59-.34-1-.62.42.48.31.8-1.2.19s-3-1.24-3.07-.93c-.4-.32-.49-.46-.48-.55s.13-.11.17-.2c.38.15.8.3,1.21.43a3.75,3.75,0,0,0,1,.22c.21,0,.23-.14.24-.25a.71.71,0,0,0-.14-.37c-1.32-.85-2.07-1.34-3.55-2.32-.09.25-.11.61-.51.71a4.83,4.83,0,0,1-1.67-.22l-1.43-.28a4.49,4.49,0,0,1-1.26-.38,6.67,6.67,0,0,1-1.47-.95,6,6,0,0,1-1.15-1.23,5.57,5.57,0,0,1-.65-1.49,2.08,2.08,0,0,1,0-1.54c-.42-.27-.61-.38-1-.59a2.25,2.25,0,0,1,1-.84Zm1.28,2.21a1.36,1.36,0,0,0,.23,1,2.89,2.89,0,0,0,1,1,1.59,1.59,0,0,0,1,.31.91.91,0,0,0,.57-.37C102.07,391.84,101.47,391.45,100.39,390.75Zm9.11,5.52a3.39,3.39,0,0,0-.17-.66,2.79,2.79,0,0,0-.76-.9,2.18,2.18,0,0,0-1-.53,1.62,1.62,0,0,0-.88,0C107.85,395.06,108.43,395.49,109.5,396.27Z" transform="translate(-8.85 -1.28)"/><path class="cls-3" d="M71.15,367.19c1-.51,2.81-.38,4.76.34a30.44,30.44,0,0,1,6.15,3.32c-1.61-.41-2.44-.25-2.73.47a11.76,11.76,0,0,0-2.72-1,3.58,3.58,0,0,0-2.32.05c1.7,1.67,2.65,2.57,4.57,4.39a11,11,0,0,1,2.4.09,8.32,8.32,0,0,1,2.07.24,6.83,6.83,0,0,1,2.12,1.07,10.24,10.24,0,0,1,1.86,1.71,6.73,6.73,0,0,1,1,1.54l1.1,2.27c.5,1.05,1.18,2.41,1.53,3.39s-.1,1,.07,1.53c.62.66.91,1,1.42,1.54a15.16,15.16,0,0,0,1,1.61c-.55-.55-.87-.85-1.56-1.49.54,1,.17,1.57-2.17-.18s-4.61-3.55-4.89-3c-.55-.73-.66-1-.63-1s.19.06.24.05c.59.41,1.24.87,1.88,1.27a5,5,0,0,0,1.57.75.42.42,0,0,0,.54-.37,1.34,1.34,0,0,0-.1-.76c-2.08-1.84-3.25-2.85-5.58-4.87-.16.52-.36,1.26-1.07,1.24a7,7,0,0,1-2.6-1.26A19.92,19.92,0,0,0,77,379,11.41,11.41,0,0,1,75,377.9,17.23,17.23,0,0,1,72.76,376c-.74-.73-1.41-1.39-1.92-2a3.84,3.84,0,0,1-1-2.23,7.39,7.39,0,0,1,.18-3c-.64-.6-.94-.89-1.46-1.41a2.51,2.51,0,0,1,1.31-1.6C70.32,366.29,70.58,366.58,71.15,367.19Zm2.22,4.65a4.49,4.49,0,0,0,.37,2,4.72,4.72,0,0,0,1.49,2,2.54,2.54,0,0,0,1.73.76,1.23,1.23,0,0,0,.94-.72C76,374.17,75.06,373.35,73.37,371.84Zm14.47,11.54c0-.43.1-.68-.13-1.18a7.22,7.22,0,0,0-1.3-1.77,4.44,4.44,0,0,0-1.6-1.17,2.33,2.33,0,0,0-1.53-.23C85.19,380.83,86.14,381.72,87.84,383.38Z" transform="translate(-8.85 -1.28)"/><path class="cls-3" d="M85.68,365.81a10.44,10.44,0,0,1,2.68.7A6.67,6.67,0,0,1,91.17,369c-1-.67-1.25-.14-1.33.75a5.73,5.73,0,0,0-1.21-.55,5.15,5.15,0,0,0-1.49-.51c.79,1.49,1.22,2.29,2.09,3.87.39.07,1.09.54,1.46.51s.61-.19.92-.13a2.22,2.22,0,0,1,1,.92,9,9,0,0,1,1,1.74,5.82,5.82,0,0,1,.46,1.4c.1.46.22,1.09.41,2s.45,2.13.52,2.94-.25.67-.22,1.1c.3.61.44.91.7,1.47a13,13,0,0,0,.43,1.45l-.8-1.48c.2.9-.17,1.15-1.42-.69s-2.39-3.61-2.6-3.14c-.16-.56-.13-.67-.07-.65s.16.14.18.13c.26.36.56.78.88,1.17a3.46,3.46,0,0,0,.85.84c.24.14.35,0,.41-.15a1.19,1.19,0,0,0,0-.58c-1-1.72-1.54-2.65-2.63-4.5-.16.33-.44.75-.82.69s-.72-.53-1-.8a1.54,1.54,0,0,0-.53-.46,1.12,1.12,0,0,1-.56-.48,16.3,16.3,0,0,1-1-1.75c-.45-.82-1-1.77-1.55-2.78a7.26,7.26,0,0,1-1.13-3,3.32,3.32,0,0,1,.54-2c-.32-.58-.47-.87-.74-1.4a1.13,1.13,0,0,1,1.07-.53C85.27,365,85.4,365.24,85.68,365.81Zm.67,3.5a3.33,3.33,0,0,0-.06,1.35,3.77,3.77,0,0,0,.59,1.71c.34.54.67.83.94.89a.68.68,0,0,0,.67-.27C87.6,371.47,87.16,370.72,86.35,369.31Zm6.94,10.82c0-.31.19-.43.14-.8a5.42,5.42,0,0,0-.5-1.47,2.91,2.91,0,0,0-.79-1.07c-.29-.24-.7-.54-.93-.5C92.08,377.86,92.51,378.65,93.29,380.13Z" transform="translate(-8.85 -1.28)"/><path class="cls-3" d="M55.46,329.51c1.61-.18,3.88.21,6.8,1.8a56.79,56.79,0,0,1,8.57,6c-2.16-.71-3.84-.9-4.84-.22a19.43,19.43,0,0,0-3.92-2.21,6.22,6.22,0,0,0-3.22-.59c1.79,2.54,2.77,3.95,4.75,6.79a23.52,23.52,0,0,1,3.35.85,16.92,16.92,0,0,1,3.35,1.28,11.62,11.62,0,0,1,2.89,2.13A7.72,7.72,0,0,1,75,348a4.58,4.58,0,0,1,.27,2.14,10.77,10.77,0,0,0,.28,2.9c.28,1.32.81,3.09,1,4.34s-.37,1.24-.2,1.92c.7.95,1,1.39,1.62,2.19a20.86,20.86,0,0,0,1.17,2.17c-.67-.78-1-1.22-1.84-2.18.6,1.35.14,2-2.71-.57s-5.65-5.11-6-4.5c-.66-1-.78-1.4-.7-1.56s.35-.13.5-.3c.73.63,1.53,1.31,2.32,1.91a8.41,8.41,0,0,0,1.93,1.24c.46.16.59-.09.67-.31a1.7,1.7,0,0,0,0-.91c-2.32-2.91-3.6-4.55-6.17-7.84-.35.45-.63,1.21-1.55,1.08a11.55,11.55,0,0,1-3.47-1.82c-1.16-.74-2.1-1.32-2.9-1.77a11.66,11.66,0,0,1-2.46-1.85,17.22,17.22,0,0,1-2.57-3.21,15,15,0,0,1-1.68-3.57,13.1,13.1,0,0,1-.45-3.71,4.41,4.41,0,0,1,1-3.29c-.74-.9-1.09-1.32-1.72-2.05a4.65,4.65,0,0,1,2.71-1Zm1.34,5.73a3.08,3.08,0,0,0-.12,2.23,7,7,0,0,0,1.59,3,4.06,4.06,0,0,0,2,1.53,1.94,1.94,0,0,0,1.47-.33C59.71,338.94,58.68,337.62,56.8,335.24Zm16.08,19.21a6.69,6.69,0,0,0,.08-1.54,7.13,7.13,0,0,0-1.08-2.54,5.52,5.52,0,0,0-1.86-2,3.6,3.6,0,0,0-1.89-.71C70.11,350.52,71.09,351.92,72.88,354.45Z" transform="translate(-8.85 -1.28)"/><path class="cls-3" d="M51.29,348.26a7,7,0,0,1,4.2.19,32.29,32.29,0,0,1,5.67,2.41c-1.35-.14-2.36,0-2.88.5a11.36,11.36,0,0,0-2.54-.8,3.83,3.83,0,0,0-2,.07c1.32,1.27,2,2,3.5,3.4a13.84,13.84,0,0,1,2.07.07,9.87,9.87,0,0,1,2.11.32,6.76,6.76,0,0,1,1.93.89,4.29,4.29,0,0,1,1.32,1.34,2.62,2.62,0,0,1,.38,1.24,6.18,6.18,0,0,0,.46,1.67c.3.75.8,1.72,1,2.44s-.09.78.08,1.15l1.18,1.09a10.7,10.7,0,0,0,.91,1.13c-.47-.37-.74-.58-1.31-1.05.5.73.29,1.14-1.65,0s-3.86-2.29-4-1.88c-.49-.52-.6-.73-.57-.84s.19-.12.27-.24c.49.28,1,.58,1.56.83a4.73,4.73,0,0,0,1.27.48c.29,0,.34-.12.37-.27a1,1,0,0,0-.12-.53c-1.67-1.42-2.59-2.22-4.44-3.84-.17.32-.26.8-.81.85a7.1,7.1,0,0,1-2.24-.63c-.76-.29-1.37-.51-1.89-.67a6.29,6.29,0,0,1-1.64-.78,9.41,9.41,0,0,1-1.85-1.56,8.68,8.68,0,0,1-1.36-1.89,8,8,0,0,1-.64-2.14,2.76,2.76,0,0,1,.24-2.07l-1.23-1a3,3,0,0,1,1.51-.92Zm1.37,3.22a1.84,1.84,0,0,0,.16,1.33,3.92,3.92,0,0,0,1.24,1.54,2.31,2.31,0,0,0,1.36.64,1.19,1.19,0,0,0,.84-.39C54.76,353.29,54,352.64,52.66,351.48Zm11.46,9.26a4.15,4.15,0,0,0-.11-.92,4.27,4.27,0,0,0-.9-1.36,3.26,3.26,0,0,0-1.3-.92,2.23,2.23,0,0,0-1.18-.17C62.08,358.78,62.8,359.48,64.12,360.74Z" transform="translate(-8.85 -1.28)"/><path class="cls-3" d="M82.77,340.15a6.5,6.5,0,0,1,2.92,2.73A26.18,26.18,0,0,1,88,348a3.67,3.67,0,0,0-2.48-1.46,9.18,9.18,0,0,0-1.25-2.1,3.66,3.66,0,0,0-1.49-1.17c0,1.64,0,2.54,0,4.36a12.86,12.86,0,0,1,1.46,1.33,8.75,8.75,0,0,1,1.3,1.51,5.38,5.38,0,0,1,.74,1.77,3.3,3.3,0,0,1,0,1.69,2.5,2.5,0,0,1-.65,1,5.92,5.92,0,0,0-.91,1.36c-.34.67-.7,1.61-1,2.22s-.65.45-.81.8c0,.62,0,.91.05,1.43a8.48,8.48,0,0,0-.17,1.29c-.08-.53-.11-.84-.18-1.49-.18.77-.64.91-1.22-1s-1.11-3.87-1.53-3.7c0-.64.11-.84.21-.89s.23,0,.37,0c.16.48.33,1,.53,1.5a4.06,4.06,0,0,0,.56,1.1.33.33,0,0,0,.47.05.87.87,0,0,0,.31-.42c-.16-1.94-.23-3-.38-5.23-.35.11-.78.36-1.22.05a5.77,5.77,0,0,1-1.16-1.79c-.34-.66-.63-1.18-.88-1.61a5.09,5.09,0,0,1-.62-1.51,7.23,7.23,0,0,1-.18-2.16,6.55,6.55,0,0,1,.42-2.06,6.91,6.91,0,0,1,1.12-1.78,2.93,2.93,0,0,1,1.72-1.18c-.06-.61-.1-.89-.16-1.4a3.48,3.48,0,0,1,1.79.34C82.74,339.32,82.75,339.58,82.77,340.15Zm-1.4,2.93a1.82,1.82,0,0,0-.88,1,3.16,3.16,0,0,0-.24,1.76,1.88,1.88,0,0,0,.52,1.26,1.41,1.41,0,0,0,.9.27C81.55,345.55,81.49,344.67,81.37,343.08Zm1.45,13.08a3.69,3.69,0,0,0,.61-.67,3.32,3.32,0,0,0,.36-1.43,2.5,2.5,0,0,0-.26-1.4,2,2,0,0,0-.74-.84C82.8,353.63,82.8,354.52,82.82,356.16Z" transform="translate(-8.85 -1.28)"/><path class="cls-3" d="M23.86,296.17c2.46-.32,5.76.1,9.71,2.21a62.39,62.39,0,0,1,11.24,8c-3.05-.89-5.52-1.07-7.2-.06a22.34,22.34,0,0,0-5.27-2.93,9.19,9.19,0,0,0-4.67-.67c2,3.5,3.1,5.44,5.31,9.35a29.45,29.45,0,0,1,4.78,1,21.19,21.19,0,0,1,4.68,1.62,13.09,13.09,0,0,1,3.77,2.87,8.08,8.08,0,0,1,2,3.69,5.81,5.81,0,0,1-.17,3,14.49,14.49,0,0,0-.35,4.07c.06,1.86.4,4.32.37,6.08s-.88,1.76-.81,2.71c.79,1.31,1.16,1.91,1.84,3a20.67,20.67,0,0,0,1.18,3c-.81-1.05-1.25-1.66-2.18-3,.53,1.88-.31,2.75-3.9-.67s-7.11-6.92-7.82-6c-.71-1.41-.78-1.93-.62-2.17s.56-.2.83-.44c.92.84,2,1.76,3,2.58a9.55,9.55,0,0,0,2.57,1.64.83.83,0,0,0,1.09-.47,2.31,2.31,0,0,0,.17-1.27c-2.69-4-4.18-6.25-7.14-10.76-.65.66-1.28,1.74-2.62,1.61s-3.18-1.42-4.71-2.4S26.06,320,25,319.41a12.7,12.7,0,0,1-3.19-2.48,17.7,17.7,0,0,1-3-4.41,16.16,16.16,0,0,1-1.57-4.94,16.8,16.8,0,0,1,.31-5.21,7.55,7.55,0,0,1,2.33-4.69c-.87-1.23-1.28-1.8-2-2.8a8.81,8.81,0,0,1,4.32-1.5C22.8,294.4,23.14,295,23.86,296.17Zm.48,8a4.53,4.53,0,0,0-.77,3.15,7.63,7.63,0,0,0,1.59,4.1,4.47,4.47,0,0,0,2.66,2,3.49,3.49,0,0,0,2.3-.54C27.71,309.26,26.53,307.45,24.34,304.19Zm19,26.28a10,10,0,0,0,.52-2.18,7.86,7.86,0,0,0-.94-3.52,5.86,5.86,0,0,0-2.26-2.68,4.71,4.71,0,0,0-2.64-.9C40.2,325.06,41.29,327,43.31,330.47Z" transform="translate(-8.85 -1.28)"/><path class="cls-3" d="M45.17,276.32c2.48,0,5.7.84,9.35,3.43a61.91,61.91,0,0,1,10.13,9.35c-2.91-1.28-5.33-1.76-7.13-1a22.25,22.25,0,0,0-4.86-3.57,9.12,9.12,0,0,0-4.54-1.26c1.54,3.72,2.38,5.79,4.07,9.94a31.32,31.32,0,0,1,4.62,1.63,21.56,21.56,0,0,1,4.43,2.21,12.87,12.87,0,0,1,3.37,3.33,8,8,0,0,1,1.48,3.9,5.82,5.82,0,0,1-.55,3,14.25,14.25,0,0,0-.86,4c-.18,1.85-.16,4.34-.42,6.08s-1.09,1.63-1.13,2.58c.61,1.4.9,2,1.43,3.22a21.21,21.21,0,0,0,.79,3.12c-.66-1.15-1-1.8-1.79-3.23.3,1.93-.65,2.7-3.77-1.15s-6.17-7.77-7-7c-.53-1.49-.53-2-.34-2.23s.58-.13.87-.33c.82.95,1.71,2,2.62,2.93a9.52,9.52,0,0,0,2.33,2,.81.81,0,0,0,1.14-.34,2.16,2.16,0,0,0,.33-1.23c-2.16-4.3-3.34-6.73-5.71-11.58-.73.57-1.48,1.56-2.8,1.26s-3-1.81-4.37-3-2.55-2.09-3.53-2.82a12.28,12.28,0,0,1-2.85-2.87,17.66,17.66,0,0,1-2.41-4.75,16.32,16.32,0,0,1-.93-5.1,17,17,0,0,1,1-5.13A7.52,7.52,0,0,1,41,277.32c-.7-1.34-1-1.95-1.66-3a8.86,8.86,0,0,1,4.48-.93C44.34,274.43,44.61,275,45.17,276.32Zm-.54,8a4.48,4.48,0,0,0-1.17,3,7.54,7.54,0,0,0,1.06,4.26A4.41,4.41,0,0,0,46.9,294a3.47,3.47,0,0,0,2.34-.24C47.33,289.8,46.38,287.86,44.63,284.34ZM60.1,312.82a10,10,0,0,0,.79-2.09,7.88,7.88,0,0,0-.48-3.62,5.87,5.87,0,0,0-1.9-2.94A4.73,4.73,0,0,0,56,302.94C57.7,307.06,58.54,309.11,60.1,312.82Z" transform="translate(-8.85 -1.28)"/><path class="cls-3" d="M26.64,160.69c4.48,1.06,10,4.09,15.9,10.72A134.69,134.69,0,0,1,58.15,194c-4.89-3.75-9.13-5.75-12.59-5A47.12,47.12,0,0,0,37.81,180c-3-2.62-5.7-4-7.85-4.41,1.72,7.92,2.65,12.31,4.51,21.15,2.23,1,5.12,3.27,7.86,5.16a43.83,43.83,0,0,1,7.38,6.23A28.11,28.11,0,0,1,54.83,216a17.86,17.86,0,0,1,1.55,8.24,11.82,11.82,0,0,1-1.84,5.54,28.1,28.1,0,0,0-2.71,7.42c-.85,3.53-1.54,8.39-2.49,11.67s-2.45,2.72-2.8,4.55c.7,3,1,4.38,1.67,6.89a46.69,46.69,0,0,0,.52,6.44c-.87-2.54-1.33-4-2.3-7.07,0,3.9-2,5-6.49-3.89S31,238,29.34,239.19c-.53-3.14-.39-4.18,0-4.51s1.08,0,1.68-.27c1.19,2.22,2.51,4.63,3.87,6.85a20.41,20.41,0,0,0,3.66,4.83,1.39,1.39,0,0,0,2.15-.16,4.3,4.3,0,0,0,1-2.28c-2.66-9.31-4.1-14.56-7-25-1.48.8-3.14,2.41-5.43,1.25s-4.85-4.8-7-7.69-4-5.17-5.57-7a27.5,27.5,0,0,1-4.32-6.83,39.32,39.32,0,0,1-3-10.3,34.94,34.94,0,0,1-.21-10.36,34.19,34.19,0,0,1,3.23-9.59c1.71-3.67,4-6.32,6.5-7.23-.89-2.9-1.32-4.25-2.12-6.64,3.07-.85,4.72-.65,8.36.12C25.7,156.65,26,157.93,26.64,160.69Zm-3.28,15.4c-1.4.93-2.39,2.78-3,5.41a16.62,16.62,0,0,0,.68,8.77c1,3,2.25,4.88,3.61,5.64a6,6,0,0,0,4.31.54C26.66,187.91,25.51,183.7,23.36,176.09Zm19.75,62.22c.63-1.28,1.49-2,2-3.73a17.17,17.17,0,0,0,.16-7.27,13.12,13.12,0,0,0-2.59-6.56c-1.32-1.65-2.84-3.18-4.17-3.48C40.43,226.05,41.36,230.4,43.11,238.31Z" transform="translate(-8.85 -1.28)"/><path class="cls-3" d="M126.56,33.41c17.58,2.94,16.41,10.34,12.27,26C135.15,73.21,127.3,89,128.35,104.57c-4.5-8.07-1.33-17.34-1.57-21.18,2.32-6.73,5-14.4,4.48-20.9s-6-9.06-12.58-8.74c-4.12,10.26-8.36,20.46-12.6,30.67a13.43,13.43,0,0,1,10.3,11.41c.58,5-1,10.17-1.84,14.8A68.24,68.24,0,0,0,113.41,123c0,3.65-.27,6.6-1.67,8.77s-3.34,3-5.85,4.45-5.52,4.19-9.51,9.33-8.91,12.76-13.46,17.67-7,3-10.46,2.5c-1.41,3.91-2,5.67-2.94,8.64a28.57,28.57,0,0,0-7.94-.31c.41-3,.72-4.69,1.5-8.48-5.51.27-9.52,0-16-10.86-4.57-7.6-8.73-17.2-16.67-21.93a9.76,9.76,0,0,1,7.83-5c3-.36,6.27,0,9.54-.12a74.91,74.91,0,0,0,4.44,8.94,29.12,29.12,0,0,0,5.19,6.93,8.73,8.73,0,0,0,4.86,2.09,17.78,17.78,0,0,0,5.64,0c2.8-10.66,5.82-21.25,8.83-31.85-6.37.1-11.28.49-15.46-2.18s-7.72-7.75-10.61-11.93A83.45,83.45,0,0,1,44.21,89c-1.42-2.94-1.79-5.86-1.15-10A32.13,32.13,0,0,1,48,66.61a36.43,36.43,0,0,1,9.72-10.32c3.91-2.73,8.32-4.62,14.58-6.84s15.72-5.86,26-9.29c.76-3.55,1.07-5.17,1.49-8,9.3-3.13,19.71-6,29.56-6.73C128.44,28.22,127.87,29.83,126.56,33.41Zm-33,25.81a72.15,72.15,0,0,0-16.37,8.19c-4.36,3-6.15,5.93-6.78,9.69s.08,6.37,2.75,7.62,6.95,1.37,13,.56C89.41,74.28,91,68.87,93.58,59.22ZM80.37,145c3.59.13,6,.5,8.91-1.77s5.38-5.87,7.5-10.14,3-7.52,2.26-10.57-2.48-6.51-6.37-7.89C88.53,124.7,84.39,134.8,80.37,145Z" transform="translate(-8.85 -1.28)"/><path class="cls-3" d="M427.47,136.55c4.69,10.83-9.64,21.13-15.93,26.33-10.25,8.48-23.24,15.24-36.06,20.44,5.33-7.27,7.52-14,4.16-19.69a72.3,72.3,0,0,0,15.87-11.69c4.94-4.84,7.18-9.5,5.57-13.51-13.89,1.28-27.76,2.8-41.63,4.32-1.27,5.29-6.4,10.21-9.19,14.43s-4.82,7.64-7.53,10.36A22.75,22.75,0,0,1,332,173.26a43,43,0,0,1-14.75.81,68.35,68.35,0,0,1-12.54-2.71,149.17,149.17,0,0,0-19.77-3.7c-10.09-1.34-20.47-2.31-30.4-4.3-8.34-1.67-6.83-4.3-4.56-10.47-4.86.21-7,.25-10.33.15,2.53-5.93,4.46-10.34,6.64-16.91,3.15-.19,5.09-.32,9.51-.65,2.87-10,1.86-13.79,13.09-20.23s22.25-12.06,21.74-16.08c3.92,1.26,5.47,3,6.38,4.86s1.26,3.72,2.39,5.55a78.21,78.21,0,0,0-8.86,4.6,24.64,24.64,0,0,0-6.76,5.51c-1.36,1.85-1.61,3.74-2.26,6.18a48,48,0,0,0-1.39,7.68q20.33-1.7,40.65-3.48c.45-6.28-.19-11.52,1.63-15.5s5.86-6.71,9.06-8.92,5.8-3.82,8.16-5.14,5.12-2.15,9.57-2.53a86.07,86.07,0,0,1,15.21.48c5.81.57,11.77,1,17.58,2s11.28,2.32,15.9,7.17S408.12,118.48,414,123.2c4.15-.29,6-.41,9-.56,6.76,5.5,10.87,7.84,14,13.83C433.86,136.35,431.92,136.38,427.47,136.55ZM390.79,125a74.9,74.9,0,0,0-12.27-8.64,20.48,20.48,0,0,0-12.88-3.07c-4.45.43-7.43,1.89-8.52,4.42s-.86,5.87.4,10.16C368.61,126.92,379.7,125.94,390.79,125ZM276.86,150.89c-1,4.85-1.14,7.67,2.81,8.68s9.7,1.28,15.77.81,9.86-1.56,13.07-3.54,7.48-5.61,9.5-10.24C304.3,148.1,290.59,149.6,276.86,150.89Z" transform="translate(-8.85 -1.28)"/><path class="cls-3" d="M509.8,317.44c-5,9.62-20.63,5.41-28,4-12-2.37-24.29-7.68-35.41-13.78,8.27-.43,14.31-2.75,16.47-8.47a65.88,65.88,0,0,0,17.5,4.5c6.32.71,10.94-.4,12.88-3.87-8.94-9.14-18-18.14-27.11-27.09-4.51,2.16-11,1.37-15.61,1.83s-8.24,1-11.74.66a20.73,20.73,0,0,1-10.28-4.31,39.18,39.18,0,0,1-9.09-10,61.83,61.83,0,0,1-5.3-10.48,136.82,136.82,0,0,0-8.76-16.2c-4.87-7.95-10.16-15.9-14.47-24.11-3.62-6.9-.87-7.35,4.85-9.32-3-3.33-4.2-4.81-6.06-7.25,5.69-1.65,9.95-2.83,15.91-5.09,1.95,2.13,3.17,3.43,5.95,6.39,8.77-3.74,10.92-6.68,22-2.44s21.45,8.83,24,6.13c1.36,3.52,1,5.64.22,7.36s-1.94,3-2.59,4.92a71,71,0,0,0-8.4-3.63,22.53,22.53,0,0,0-7.83-1.62c-2.12.11-3.61,1-5.72,2a44.75,44.75,0,0,0-6.3,3.47q12.94,13.47,25.94,26.88c4.75-3.32,8.13-6.82,12-7.83s8.18.27,11.61,1.26,6.07,1.92,8.37,2.83,4.49,2.38,7.33,5.33a78.68,78.68,0,0,1,8.44,11.1c2.94,4.45,6,9,8.69,13.67s4.85,9.36,4.05,15.46a153.5,153.5,0,0,0-1.79,20.49c2.6,2.78,3.74,4,5.58,6.05,0,8,.66,12.28-1.82,18C513.63,321.88,512.49,320.51,509.8,317.44Zm-12.92-32.75a68.62,68.62,0,0,0-.91-13.75A18.64,18.64,0,0,0,490.73,260c-2.87-2.91-5.63-4.18-8.07-3.49s-4.69,2.79-7,6.18Q486.28,273.66,496.88,284.69Zm-84.21-66c-4,2.13-6.14,3.65-4.58,7a47.58,47.58,0,0,0,8.52,11.68c3.83,4,6.8,6.1,10.07,7.24s8.32,2.06,12.79.81C430.48,236.6,421.51,227.7,412.67,218.69Z" transform="translate(-8.85 -1.28)"/><path class="cls-3" d="M489.09,475.1c-5.22,4.13-14.95-.67-23.29-8.19A128.66,128.66,0,0,1,443.89,442c6.58,3,12.19,3.61,16.17.05a57.23,57.23,0,0,0,11.75,10.52c4.61,3.08,8.64,4.08,11.54,2.17-3.25-10.68-6.7-21.28-10.13-31.9-4.37-.13-9.07-3.34-12.84-4.84s-6.79-2.53-9.37-4.21a18.08,18.08,0,0,1-6.23-7.47,34.08,34.08,0,0,1-3-11.42,53.56,53.56,0,0,1,.1-10.25,122.86,122.86,0,0,0-.29-16.08c-.5-7.55-1.56-17.63-1.52-24.5s2.28-6.05,7.5-5.28c-.95-3.77-1.33-5.41-1.79-8.06,5.08,1,8.86,1.81,14.39,2.45.65,2.44,1.07,3.94,2,7.34,8.3.63,11.15-.79,18,7s13.09,15.45,16.17,14.4c-.36,3.27-1.49,4.77-2.79,5.79s-2.73,1.59-4,2.77a62.2,62.2,0,0,0-5.06-6.19,19.69,19.69,0,0,0-5.42-4.39c-1.68-.77-3.21-.66-5.23-.76a38.85,38.85,0,0,0-6.27.15q4.62,15.64,9.31,31.26c5-.67,9-2,12.45-1.25s6.24,3.5,8.49,5.65,3.94,3.92,5.36,5.55a17.93,17.93,0,0,1,3.54,7.08,68,68,0,0,1,2.08,12c.49,4.64,1.08,9.38,1.25,14.09s0,9.21-3.08,13.61a136.78,136.78,0,0,0-9.62,15.17c.9,3.2,1.29,4.61,1.9,6.93-3.24,6.19-4.42,9.78-8.63,13.19C490.28,480.07,489.94,478.55,489.09,475.1Zm3.15-30.59a59.68,59.68,0,0,0,4.81-11,16.26,16.26,0,0,0,.33-10.58c-1.06-3.41-2.69-5.5-4.85-5.94s-4.76.28-7.93,2C487.88,429.85,489.49,435.2,492.24,444.51Zm-38.77-85c-4,0-6.22.36-6.38,3.62A41.7,41.7,0,0,0,449,375.61c1.35,4.68,2.82,7.47,4.9,9.66s5.63,4.94,9.6,5.77C460.1,380.55,456.7,370.06,453.47,359.52Z" transform="translate(-8.85 -1.28)"/><path class="cls-3" d="M432.31,573.8c-3.52,1.54-7.41-5.47-6.3-17.18.9-9.4,3-20,1.85-29.61,2.21,3.82,1.08,8.93,1.49,10.41-.42,4.78-.87,10.49.25,16s3.48,6.84,5.36,6.34c1.54-8.13,2.47-13,4.35-22.85-2.12-1.45-4.54-6.35-5.93-11.23a39.16,39.16,0,0,1-1.5-10.18,47.59,47.59,0,0,0-.65-5.88,28.15,28.15,0,0,1-.48-6.18,21.87,21.87,0,0,1,1.21-5.58c.69-2.37,1.59-6.5,3.18-12.62s3.85-14.32,7.33-15.62,5.81,4.73,8.63,7.63c.47-2.52.66-3.59.94-5.2a79,79,0,0,0,8.28,8.3c-.15,1.49-.3,2.45-.71,4.67,5,4.06,6.77,3.72,9.06,9.54s4.33,11.4,5.94,11.53a5.38,5.38,0,0,1-3.54,2.76c-1.36.4-2.87.59-4.5,1.2a34.5,34.5,0,0,0-1.47-4.49,15,15,0,0,0-1.92-3.66,11.64,11.64,0,0,0-2.59-2,43.8,43.8,0,0,0-3.74-2.38c-1.85,7.67-3.05,12.25-5.44,21.38,2.85,1.42,5,1.84,6.86,2.93a19.73,19.73,0,0,1,4.52,4.34,16.46,16.46,0,0,1,2.49,3.61c.49,1.07.43,2.39-.15,4.56A37.31,37.31,0,0,1,462,542a84.54,84.54,0,0,1-5.95,9.76c-2.41,3.37-5.16,6.66-8.42,8.74a40.92,40.92,0,0,0-8.58,7.16c-.38,2.08-.52,3-.67,4.4-2.83,3.19-4,5.25-6.91,6.57Zm9.27-18.14a66.75,66.75,0,0,0,5.25-5.52,15.73,15.73,0,0,0,3.56-6.29c.63-2.28.55-3.88-.29-4.67s-2.22-1.07-4.19-1C444,545.66,443.06,549.34,441.58,555.66Zm6.82-64.11c-2.28-1.68-2.93-1.11-5.08-1.85s-3.26,1.84-3.86,5.36a22.12,22.12,0,0,0,.93,11.13c1.4,4.53,1.82,5.95,3.68,7.92C445.93,504.43,446.86,499.63,448.4,491.55Z" transform="translate(-8.85 -1.28)"/><path class="cls-3" d="M370.25,674.17a5.38,5.38,0,0,1-.29,3.26,20.39,20.39,0,0,1-2.09,4,3.08,3.08,0,0,0-.3-2.34,7.24,7.24,0,0,0,.71-1.85,3,3,0,0,0,0-1.55l-2.8,2.15a10.88,10.88,0,0,1-.12,1.6,7.56,7.56,0,0,1-.32,1.6,4.2,4.2,0,0,1-.77,1.35,2.66,2.66,0,0,1-1.11.8,1.91,1.91,0,0,1-1,.08,5.11,5.11,0,0,0-1.34.07c-.6.1-1.39.32-2,.39s-.61-.21-.91-.14c-.4.32-.58.46-.9.73a7.33,7.33,0,0,0-.93.52c.31-.31.49-.48.88-.84-.59.26-.92,0,0-1.3s1.93-2.62,1.61-2.82c.43-.29.6-.34.68-.29s.1.17.18.24c-.23.34-.48.72-.7,1.09a3,3,0,0,0-.42.9.28.28,0,0,0,.2.34.76.76,0,0,0,.42,0c1.18-1,1.85-1.63,3.18-2.8-.24-.18-.62-.34-.64-.78a4.73,4.73,0,0,1,.57-1.64c.25-.54.45-1,.6-1.36a3.73,3.73,0,0,1,.66-1.15,6.09,6.09,0,0,1,2.84-1.91,6,6,0,0,1,1.71-.13,2.48,2.48,0,0,1,1.63.55c.36-.34.53-.5.82-.79a3,3,0,0,1,.68,1.35Zm-2.59.51a1.5,1.5,0,0,0-1.06-.11,2.53,2.53,0,0,0-1.26.7,1.46,1.46,0,0,0-.55,1,1.21,1.21,0,0,0,.28.73C366.16,676,366.7,675.54,367.66,674.68ZM360,682a3.22,3.22,0,0,0,.74.08,2.71,2.71,0,0,0,1.1-.47,2,2,0,0,0,.77-.85,1.6,1.6,0,0,0,.18-.9Z" transform="translate(-8.85 -1.28)"/><path class="cls-3" d="M389.19,645.1c.84.95,1.24,2.92,1,5.07a27.74,27.74,0,0,1-1.76,6.89c0-1.75-.46-2.62-1.33-2.84a11.15,11.15,0,0,0,.27-3,4.14,4.14,0,0,0-.74-2.45c-1.31,2-2,3.11-3.4,5.35a11.49,11.49,0,0,1,.61,2.55,8.27,8.27,0,0,1,.35,2.21,6.35,6.35,0,0,1-.52,2.37,8.47,8.47,0,0,1-1.31,2.17,5.67,5.67,0,0,1-1.35,1.28c-.49.34-1.16.78-2.14,1.44a36,36,0,0,1-3.22,2c-1,.48-1.11,0-1.63.26-.53.74-.78,1.08-1.25,1.68a11.66,11.66,0,0,0-1.45,1.26c.43-.66.67-1,1.16-1.83-1,.69-1.65.36-.46-2.32s2.49-5.29,1.76-5.52c.62-.66.85-.81.92-.78s0,.21,0,.26c-.28.67-.58,1.41-.82,2.13a4.72,4.72,0,0,0-.35,1.75.56.56,0,0,0,.56.53,1.38,1.38,0,0,0,.8-.2c1.37-2.41,2.12-3.77,3.62-6.47-.62-.11-1.47-.24-1.66-1a6.23,6.23,0,0,1,.58-2.89,17.23,17.23,0,0,0,.67-2.4,10.12,10.12,0,0,1,.58-2.17,13.63,13.63,0,0,1,1.43-2.63,24,24,0,0,1,1.6-2.27,3.56,3.56,0,0,1,2.11-1.35,8.75,8.75,0,0,1,3.26-.16c.47-.75.69-1.09,1.1-1.71a3.45,3.45,0,0,1,2.12,1.2C389.91,644.11,389.68,644.42,389.19,645.1Zm-4.38,2.9a4.42,4.42,0,0,0-2,.61,4.06,4.06,0,0,0-1.72,1.82,2.43,2.43,0,0,0-.31,1.92,1.63,1.63,0,0,0,1.06.9C383.06,651.05,383.67,650,384.81,648Zm-8.2,16.65c.45-.1.76,0,1.24-.27a6.16,6.16,0,0,0,1.53-1.59,3.92,3.92,0,0,0,.79-1.83,2.53,2.53,0,0,0-.2-1.64C378.59,661.55,377.9,662.66,376.61,664.65Z" transform="translate(-8.85 -1.28)"/><path class="cls-3" d="M398.29,655.24a12.91,12.91,0,0,1-.3,3.35c-.17,1-.81,2.16-2.44,4,.6-1.34-.09-1.51-1.18-1.37a7.1,7.1,0,0,0,.42-1.57,6.16,6.16,0,0,0,.3-1.88c-1.64,1.3-2.5,2-4.24,3.45,0,.48-.41,1.43-.31,1.86s.37.67.35,1a2.9,2.9,0,0,1-.89,1.46,12.17,12.17,0,0,1-1.9,1.61,8.37,8.37,0,0,1-1.59.9l-2.35,1c-1.07.46-2.48,1.08-3.44,1.37s-.86-.11-1.37,0c-.67.51-1,.75-1.63,1.2a17.93,17.93,0,0,0-1.66.88c.61-.49.94-.76,1.62-1.33-1,.48-1.42.1.54-1.85s3.86-3.74,3.25-3.86c.64-.34.78-.34.77-.26s-.14.22-.12.25c-.39.4-.82.86-1.23,1.33a4.86,4.86,0,0,0-.84,1.22c-.11.32.08.41.26.45a1.68,1.68,0,0,0,.72-.11c1.86-1.61,2.87-2.5,4.88-4.27-.43-.1-1-.33-1-.78s.48-1,.76-1.36a1.93,1.93,0,0,0,.44-.75,1.36,1.36,0,0,1,.46-.77,22.13,22.13,0,0,1,1.9-1.66c.9-.74,1.93-1.64,3-2.55a9.69,9.69,0,0,1,3.4-2.1,4.06,4.06,0,0,1,2.5.12c.64-.53.95-.78,1.53-1.24a1.3,1.3,0,0,1,.86,1.13C399.22,654.55,398.92,654.78,398.29,655.24ZM394.21,657a4.1,4.1,0,0,0-1.64.27,5.08,5.08,0,0,0-1.95,1.14,2.26,2.26,0,0,0-.87,1.34.79.79,0,0,0,.46.72C391.86,659,392.67,658.26,394.21,657Zm-11.61,11c.38,0,.55.11,1,0a6.71,6.71,0,0,0,1.67-1,4.07,4.07,0,0,0,1.13-1.2c.23-.41.5-1,.41-1.23C385.08,665.9,384.22,666.61,382.6,667.92Z" transform="translate(-8.85 -1.28)"/><path class="cls-3" d="M419.27,618.43A12.61,12.61,0,0,1,420.9,626a48,48,0,0,1-1.9,10.48c-.37-2.43-1.06-4.22-2.32-5.06a17.14,17.14,0,0,0,.33-4.65,7.16,7.16,0,0,0-1.07-3.49c-1.79,2.55-2.78,4-4.8,6.78a23.42,23.42,0,0,1,.85,3.68,16.26,16.26,0,0,1,.39,3.82,9.76,9.76,0,0,1-.77,3.57,6.16,6.16,0,0,1-1.94,2.58,4.48,4.48,0,0,1-2.15.87,11.27,11.27,0,0,0-3,1.09c-1.28.65-2.9,1.69-4.13,2.25s-1.53,0-2.16.32c-.66,1-1,1.44-1.51,2.27a17.45,17.45,0,0,0-1.71,1.81c.48-.91.75-1.41,1.37-2.5-1.14,1-2,.69-.81-2.95s2.51-7.24,1.66-7.45c.76-1,1.1-1.18,1.32-1.14s.33.32.58.43c-.29.92-.6,1.94-.83,2.92a7.45,7.45,0,0,0-.32,2.34.65.65,0,0,0,.7.6,1.69,1.69,0,0,0,.94-.3c1.91-3.19,3-5,5.19-8.52-.67-.24-1.63-.32-2-1.31s-.05-2.69.13-4.08.31-2.53.38-3.48a9.8,9.8,0,0,1,.69-3,13.36,13.36,0,0,1,2.11-3.54,12.42,12.42,0,0,1,2.94-2.72,12.92,12.92,0,0,1,3.75-1.49,5.87,5.87,0,0,1,4.05.09c.58-1,.84-1.48,1.3-2.34a6.91,6.91,0,0,1,2.46,2.54C420.16,617.11,419.88,617.53,419.27,618.43Zm-5.46,3a3.53,3.53,0,0,0-2.46.49,5.82,5.82,0,0,0-2.34,2.46,3.41,3.41,0,0,0-.56,2.53,2.64,2.64,0,0,0,1.13,1.43C411.37,625.42,412.24,624,413.81,621.4Zm-12.18,21.89a8.17,8.17,0,0,0,1.7-.35,6.19,6.19,0,0,0,2.16-1.81,4.61,4.61,0,0,0,1.13-2.46,3.66,3.66,0,0,0-.24-2.14C404.4,639.34,403.41,640.74,401.63,643.29Z" transform="translate(-8.85 -1.28)"/><path class="cls-3" d="M397.88,615.58a7.47,7.47,0,0,1,2.07,4,28.38,28.38,0,0,1,.5,6.24,4.23,4.23,0,0,0-2.07-2.52,10.58,10.58,0,0,0-.52-2.69,4.19,4.19,0,0,0-1.13-1.82c-.63,1.72-1,2.67-1.7,4.59a13.48,13.48,0,0,1,1,2,9.83,9.83,0,0,1,.8,2.1,6.06,6.06,0,0,1,.1,2.16,3.66,3.66,0,0,1-.71,1.75,2.61,2.61,0,0,1-1.09.83,6.12,6.12,0,0,0-1.51,1.07c-.63.57-1.39,1.4-2,1.91s-.87.21-1.18.51c-.22.66-.33,1-.51,1.52a10.18,10.18,0,0,0-.7,1.29c.14-.59.22-.92.4-1.63-.49.74-1,.7-.9-1.55s.33-4.5-.18-4.49c.28-.66.44-.84.57-.85s.23.13.39.16c0,.57,0,1.19,0,1.78a4.21,4.21,0,0,0,.18,1.38.37.37,0,0,0,.48.24,1,1,0,0,0,.49-.32c.6-2.1.95-3.28,1.65-5.63-.42,0-1,.07-1.32-.44a6.51,6.51,0,0,1-.54-2.34c-.11-.82-.21-1.48-.31-2a5.71,5.71,0,0,1-.07-1.84,8.21,8.21,0,0,1,.66-2.33,7.29,7.29,0,0,1,1.26-2,7.57,7.57,0,0,1,1.89-1.42,3.45,3.45,0,0,1,2.31-.57c.17-.66.25-1,.38-1.52a4,4,0,0,1,1.78,1.06C398.19,614.7,398.09,615,397.88,615.58Zm-2.64,2.52a2,2,0,0,0-1.32.66,3.35,3.35,0,0,0-.95,1.75A2,2,0,0,0,393,622a1.62,1.62,0,0,0,.86.65C394.46,620.76,394.75,619.82,395.24,618.1Zm-3.59,14.3a4.86,4.86,0,0,0,.91-.46,3.65,3.65,0,0,0,.95-1.36,2.74,2.74,0,0,0,.27-1.57,2.14,2.14,0,0,0-.46-1.18C392.62,629.73,392.27,630.68,391.65,632.4Z" transform="translate(-8.85 -1.28)"/><path class="cls-3" d="M595.21,231.13c-1.81,10.7-18,11.5-25.42,12.38-12.11,1.44-25.48.18-37.93-2.2,7.73-3,12.77-7,13.06-13.13a66.19,66.19,0,0,0,18-1.1c6.22-1.28,10.28-3.75,11-7.66-11.31-5.93-22.71-11.7-34.13-17.42-3.62,3.45-10,4.69-14.29,6.55s-7.53,3.49-11,4.25a20.77,20.77,0,0,1-11.1-.94,39.32,39.32,0,0,1-11.74-6.74,61.66,61.66,0,0,1-8.26-8.33,136.9,136.9,0,0,0-13.33-12.72c-7.08-6.07-14.56-12-21.19-18.48-5.57-5.46-3.09-6.73,1.75-10.36-3.84-2.26-5.48-3.28-8-5,4.91-3.32,8.6-5.75,13.58-9.74,2.51,1.43,4.07,2.29,7.62,4.25,7.19-6.26,8.34-9.72,20.18-9.09s23.13,1.79,24.76-1.57c2.37,2.92,2.69,5.05,2.47,6.93s-.91,3.5-1,5.48a70.56,70.56,0,0,0-9.11-.87,22.35,22.35,0,0,0-8,.88c-2,.75-3.12,2.08-4.83,3.64a44.65,44.65,0,0,0-4.92,5.24q16.46,8.83,33,17.58c3.49-4.62,5.63-9,9-11.15s7.87-2.26,11.43-2.36,6.37,0,8.84.1a20.5,20.5,0,0,1,8.61,2.82,78.29,78.29,0,0,1,11.45,8c4.17,3.33,8.51,6.67,12.48,10.33s7.49,7.41,8.61,13.47,2.43,13.45,4.61,20c3.33,1.85,4.79,2.67,7.17,4,2.43,7.62,4.41,11.47,3.8,17.65C600.22,234.17,598.71,233.22,595.21,231.13Zm-22.38-27.19a68.78,68.78,0,0,0-5.1-12.79,18.7,18.7,0,0,0-8.35-8.79c-3.63-1.88-6.65-2.24-8.75-.83s-3.6,4.1-4.79,8Q559.36,196.73,572.83,203.94ZM472.39,167.09c-3.18,3.27-4.72,5.36-2.19,8.1a47.39,47.39,0,0,0,11.7,8.49c4.89,2.67,8.35,3.72,11.81,3.79s8.56-.6,12.42-3.17C494.84,178.64,483.58,172.94,472.39,167.09Z" transform="translate(-8.85 -1.28)"/><path class="cls-3" d="M483.36,92.72c-.3,11.8-17.63,15.12-25.52,17.19-12.87,3.39-27.5,4.06-41.32,3.4,7.89-4.36,12.69-9.51,12.06-16.13a71.67,71.67,0,0,0,19.3-3.93c6.53-2.32,10.52-5.6,10.74-9.92C445.48,78.66,432.25,74.2,419,69.76c-3.37,4.26-10.1,6.57-14.4,9.22s-7.59,4.91-11.19,6.24a22.66,22.66,0,0,1-12.14.68,42.91,42.91,0,0,1-13.73-5.47,68.35,68.35,0,0,1-10.23-7.72A150.37,150.37,0,0,0,341,61c-8.59-5.46-17.6-10.71-25.77-16.68-6.87-5-4.39-6.78.26-11.42-4.5-1.85-6.43-2.7-9.43-4.21,4.78-4.32,8.39-7.5,13.13-12.55,2.94,1.16,4.75,1.85,8.9,3.42,6.79-7.84,7.49-11.74,20.38-12.86s25.26-1.59,26.49-5.46c3,2.79,3.69,5,3.75,7.1s-.43,3.9-.17,6a76.11,76.11,0,0,0-10,.45A24.59,24.59,0,0,0,360.07,17c-2,1.11-3,2.72-4.65,4.66a47.69,47.69,0,0,0-4.49,6.39q19.15,7,38.35,13.92c3-5.51,4.67-10.53,8-13.37s8.15-3.63,12-4.29,6.87-1,9.56-1.23,5.55.2,9.75,1.72a86.28,86.28,0,0,1,13.6,6.83c5,3,10.24,5.9,15.1,9.23s9.26,6.85,11.41,13.2S473.4,68.2,476.78,75c3.88,1.48,5.59,2.14,8.37,3.26C489,86.05,491.72,89.9,492,96.65,489.24,95.23,487.47,94.43,483.36,92.72ZM454.93,66.84a75.94,75.94,0,0,0-7.51-13,20.53,20.53,0,0,0-10.4-8.2c-4.22-1.47-7.53-1.4-9.59.44s-3.24,5-3.91,9.38Q439.24,61.13,454.93,66.84ZM340.67,42.42c-2.92,4-4.25,6.49-1.09,9.06s8.25,5.24,14,7.37,9.6,2.73,13.35,2.28,9.15-2,12.92-5.31C366.74,51.43,353.67,47,340.67,42.42Z" transform="translate(-8.85 -1.28)"/><path class="cls-3" d="M366.28,576.5c-.47,4.2-2.8,17.83-2.8,17.83s-5.15-14.6-6.05-17.83-2.18-9.4-2.86-11.85-1.62-4.44-1.76-5.88a5.12,5.12,0,0,1,.47-2.5s.32-.71.19-.41c1,2.23,6.38,6,7.26,5.43a27.78,27.78,0,0,0,3.07-3.15v0C364,558.91,366.81,571.81,366.28,576.5Z" transform="translate(-8.85 -1.28)"/><path class="cls-18" d="M366.06,546.66c-.83-.33,1-5.18,0-7s-4.51-3.35-8.69-3.35c-2.22,0-4.19,2.34-4.87,3.44a7,7,0,0,0-.68,3.45,27.4,27.4,0,0,0,.49,4.05c0-.1-.4-1.09-.89-.6s-.39,1.54,0,3.46,1.54,1.8,1.67,2.18a11.89,11.89,0,0,1,.48,2.35,2.66,2.66,0,0,1-.1,1.24c1,2.23,6.38,6,7.26,5.43a27.78,27.78,0,0,0,3.07-3.15,4.57,4.57,0,0,1-.08-1.11,17.08,17.08,0,0,1,.2-2.41c.15-.91.36-1.68.64-1.77,1.43-.47,2.67-3.35,2.67-4.69S366.9,547,366.06,546.66Zm18.25,140.1c-.38-.47-.22-1-.59-1.45-.77-.9-5.23-1.94-6.8-3s-3.95-4-4.33-5.39,1-6.54,1.15-8.08-.26-5.51.26-10.39,2.92-11.24,2.92-14c0-1.82,0-21.68,0-23.22s-.22-1.12-.25-2.27.29-1.06.68-2.21-.43-5.65.44-6.55.31-5.26.72-5.9-.92-1.15-.79-1.92a26.74,26.74,0,0,0,.77-2.7c.12-1.15-.62-1.5-.77-2.31-.23-1.23-.1-6.54-.25-8-.1-1-1.14-1.16-1.11-3s-.8-9.28-.24-11.49c1.12-4.46,0-10.26-1.19-11.93a4.42,4.42,0,0,0-2.19-1.28c-2.21-.76-5.35-1.22-6.84-1.92s-1.91-1.09-2.09-1.68c.16.74,3,13.64,2.47,18.33-.47,4.2-2.8,17.83-2.8,17.83s-5.15-14.6-6.05-17.83-2.18-9.4-2.86-11.85-1.62-4.44-1.76-5.88a5.12,5.12,0,0,1,.47-2.5,10.42,10.42,0,0,1-2.93,3.58l-.25.16c-1.42.84-3.47,1.52-4.3,2s-5.41,1.55-6.82,2.7S334.87,576,334.62,577s-5.26,10.39-4.49,16.29,3.2,10.13,4.61,12.95a80,80,0,0,0,4.75,7.57s.48,2.06.9,2.06.64-1.42,1-1.07a53.14,53.14,0,0,1,3.72,7.33c.26,1,0,1.3,0,3a30.71,30.71,0,0,0,.26,4.88c.26,1.66-.26,3.33-.13,5s1.1,5,.68,6.55c-.58,2.19-.42,7.82-.68,9.48a51.43,51.43,0,0,0-.8,6.74c0,2.41,1.13,20.67,1.13,20.67s-.33.94.2,1.45,2,.13,1.53,1c-.3.52-.42,3.47-.68,5.83-.18,1.74-.61,2.85-.33,4,.66,2.82,7.93,3.21,9.34,1.67s-.77-4.62-.51-5.65-1.15-6-1.06-6.8a31.84,31.84,0,0,0,1.19-6.15c.13-3-1-8.6-1.16-10.14a19.83,19.83,0,0,1,1-7.18c.9-2.44.51-2.31.9-4.23s3.92-24.51,5-23.73c1.93,1.4,3.91,12.69,4,14.11.1,2.15,1.16,3.89.64,5.13-1,2.28-1.41,14.11-1.54,15.52s-1.28,11-1.41,11.41.84,1.34.54,2.06c-.52,1.22-1.17,7.55-.66,8.45s5.3,1,5.3,1,0-.84.24-1.08c.86-.76,3.8,2.41,5.23,2.8,7.29,2,10.35,1,11.15,0C385.18,687.17,384.54,687.06,384.31,686.76Zm-41.44-81.42s-.86-2.07-1.06-2.74-1.48-1.41-1.48-1.41-.94-4.09-1.67-4.89-.4-1.81-.4-3.82.73-1.81,1.13-2.41.34-1.34.74-1.88a38.51,38.51,0,0,0,1.68-3.82s2.48,7.44,2.07,12.87a57.63,57.63,0,0,0,.05,9.51Z" transform="translate(-8.85 -1.28)"/><path class="cls-3" d="M353.47,555.87c-.05.12-.12.25-.2.41A2.42,2.42,0,0,1,353.47,555.87Z" transform="translate(-8.85 -1.28)"/><path class="cls-18" d="M358.28,561.2c-.52.07-.44,2.36,0,2.67s1.63-.48,1.92-.59a1.35,1.35,0,0,0,.52.06,3.72,3.72,0,0,0,.58-.16,5.16,5.16,0,0,0,1.63.48c.44-.06.59-1.87,0-2.63s-1.21.51-1.73.85a2,2,0,0,0-.56-.09,1.07,1.07,0,0,0-.55.1A5,5,0,0,0,358.28,561.2Z" transform="translate(-8.85 -1.28)"/><circle class="cls-18" cx="353.63" cy="574.21" r="0.5"/><circle class="cls-18" cx="354.03" cy="578.23" r="0.5"/><circle class="cls-18" cx="354.23" cy="582.25" r="0.5"/><path class="cls-3" d="M451.7,576.26a13.16,13.16,0,0,1,1.65,8.74,108,108,0,0,1-2.78,12.68c-.39-2.95-.94-4.5-2.24-4.87a19.54,19.54,0,0,0,.65-5.44,8.23,8.23,0,0,0-1.24-4.27c-2.13,3.64-3.31,5.64-5.71,9.67a25,25,0,0,1,1,4.53,17.7,17.7,0,0,1,.24,4.29,19.44,19.44,0,0,1-1,4.65,12.53,12.53,0,0,1-2.18,4,6.27,6.27,0,0,1-2.46,1.8,18.18,18.18,0,0,0-3.45,2.13c-1.5,1.12-3.41,2.8-4.88,3.74s-1.82.2-2.58.79c-.78,1.39-1.15,2-1.79,3.22a24.84,24.84,0,0,0-2,2.65c.57-1.27.9-2,1.63-3.5-1.36,1.49-2.42,1.24-1-3.72s3-9.89,2-10c.9-1.39,1.3-1.74,1.57-1.72s.38.36.69.46c-.34,1.26-.71,2.64-1,4a10.91,10.91,0,0,0-.36,3.11.66.66,0,0,0,.82.67,2.15,2.15,0,0,0,1.13-.55c2.27-4.49,3.57-7,6.17-12-.81-.2-1.95-.15-2.37-1.38s-.07-3.5.15-5.36.36-3.35.44-4.6a14.66,14.66,0,0,1,.82-4.1,21.46,21.46,0,0,1,2.49-5,18.92,18.92,0,0,1,3.52-4.05,17.3,17.3,0,0,1,4.47-2.58c1.88-.83,3.62-1.06,4.82-.56.69-1.42,1-2.08,1.54-3.27a7,7,0,0,1,2.95,2.9C452.76,574.38,452.42,575,451.7,576.26Zm-6.51,4.79a4.3,4.3,0,0,0-2.93,1.06,9.07,9.07,0,0,0-2.79,3.61,5.15,5.15,0,0,0-.66,3.4,2.87,2.87,0,0,0,1.35,1.68C442.28,586.73,443.33,584.71,445.19,581.05Zm-14.47,30.67a10.33,10.33,0,0,0,2-.74,9,9,0,0,0,2.57-2.75,7.29,7.29,0,0,0,1.35-3.39,5,5,0,0,0-.29-2.77C434,606.09,432.83,608.08,430.72,611.72Z" transform="translate(-8.85 -1.28)"/><path class="cls-3" d="M419.61,570.44a12.6,12.6,0,0,1,3.7,6.76,47.71,47.71,0,0,1,1.14,10.59c-1-2.22-2.21-3.74-3.65-4.2a17.37,17.37,0,0,0-1-4.55,7,7,0,0,0-2-3c-1,3-1.55,4.58-2.68,7.86a22.58,22.58,0,0,1,1.85,3.29,16.45,16.45,0,0,1,1.46,3.54,10.1,10.1,0,0,1,.27,3.66,6.18,6.18,0,0,1-1.13,3,4.56,4.56,0,0,1-1.82,1.44,11.39,11.39,0,0,0-2.54,1.88c-1,1-2.3,2.45-3.33,3.33s-1.47.39-2,.92c-.36,1.13-.52,1.66-.8,2.61a15.92,15.92,0,0,0-1.14,2.22c.2-1,.33-1.57.61-2.79-.81,1.27-1.75,1.23-1.61-2.6s.36-7.66-.51-7.62c.45-1.13.71-1.44.94-1.47s.4.22.67.25c0,1,0,2,0,3a7.6,7.6,0,0,0,.36,2.33.64.64,0,0,0,.84.38,1.75,1.75,0,0,0,.82-.55c.93-3.6,1.47-5.62,2.56-9.64-.71,0-1.66.15-2.27-.69s-.81-2.57-1-4-.41-2.51-.61-3.44a9.23,9.23,0,0,1-.2-3.12,13.62,13.62,0,0,1,1-4,12.57,12.57,0,0,1,2.06-3.44,13,13,0,0,1,3.17-2.49,5.82,5.82,0,0,1,3.91-1.05c.27-1.14.39-1.67.58-2.62a6.82,6.82,0,0,1,3.08,1.74C420.1,568.92,419.94,569.41,419.61,570.44Zm-4.39,4.39A3.49,3.49,0,0,0,413,576a5.82,5.82,0,0,0-1.55,3,3.46,3.46,0,0,0,.17,2.59,2.7,2.7,0,0,0,1.49,1C414,579.38,414.45,577.77,415.22,574.83Zm-5.49,24.45a8.59,8.59,0,0,0,1.53-.82,6.11,6.11,0,0,0,1.56-2.35,4.59,4.59,0,0,0,.39-2.68,3.67,3.67,0,0,0-.83-2C411.27,594.7,410.71,596.33,409.73,599.28Z" transform="translate(-8.85 -1.28)"/><text class="cls-19" transform="translate(433.82 489.11)">i<tspan class="cls-20" x="2.81" y="0">r</tspan><tspan x="6.78" y="0">is1.position.x += </tspan><tspan class="cls-21" x="91.41" y="0">v</tspan><tspan x="97.07" y="0">ol*5*di</tspan><tspan class="cls-22" x="132.18" y="0">r</tspan><tspan class="cls-23" x="136.21" y="0">;</tspan></text></g></g></svg>