<svg xmlns="http://www.w3.org/2000/svg" viewBox="0 0 725.59 584.44"><defs><style>.cls-1{fill:#ef9050;}</style></defs><title>face2</title><g id="Layer_2" data-name="Layer 2"><g id="Layer_1-2" data-name="Layer 1"><path class="cls-1" d="M427.74,12.67C410.39,5.11,393.54.46,374.39,0a133.21,133.21,0,0,0-46.33,7.24c-31.9,11.23-60.6,32.49-76.56,62.87-6.23,11.87-6.92,25.53,0,37.35,5.92,10.11,19.51,20,31.95,18.33,41.13-5.49,81.48-13.67,121-26.34L376,31.86a212,212,0,0,1-33.34,17.63l8.84-3.73c-36.17,15.22-74.63,25.9-112.22,37Q181,100,121.94,114.45c-17.9,4.39-28.87,23-26.5,40.59,2.52,18.81,17.74,31,36.34,32.09,85,5.21,170-6.18,253.6-20.55,23-4,46-8.19,68.93-12.43L434.64,82.8C348.58,117.51,258.41,140.33,168,160.25c-25.67,5.66-51.39,11.09-77.11,16.52-8.39,1.77-18.13,9.47-22.11,17a38.1,38.1,0,0,0-4.39,23.59c1,7.76,4.23,15.79,10.17,21.24,6.68,6.13,16.72,12.09,26.17,10.84a2219.34,2219.34,0,0,1,317-19.07q44.43.52,88.79,2.83l-9.83-72.68c-119.62,34.05-241.5,59.68-362.77,87L30.53,270.77c-18,4-28.83,23.27-26.5,40.59,1,7.77,4.23,15.79,10.17,21.25,6.81,6.25,16.57,11.82,26.17,10.84,69.84-7.14,139.69-14.28,209.61-20.67s139.88-12,210-16.19q59.49-3.51,119.05-5.46l-9.83-72.68-364,75.79-103.71,21.6c-8.38,1.75-18.14,9.49-22.11,17A38.15,38.15,0,0,0,75,366.44c2.26,16.81,18,33.72,36.34,32.08,83-7.43,165.5-20,248-32q34.15-4.95,68.35-9.61l-9.84,1.32c77.56-10.4,155.53-18.67,233.85-19.6L641.81,266c-74.54,21.12-150.7,35.72-227,48.54-76.16,12.79-152.62,23.89-228.51,38.24C143.52,360.84,101,370,58.89,381,41,385.61,30,403.75,32.39,421.55c2.5,18.63,17.75,31.18,36.34,32.08,127.91,6.19,254.52-19.64,379.88-41.4,34.68-6,69.42-11.75,104.31-16.47l-9.84,1.33q22.8-3.06,45.66-5.48l-9.84-72.68C508,336.85,436.25,351.63,364.32,365c-71.67,13.32-143.58,25.27-215.42,37.66-40.72,7-81.42,14.2-122,21.84-8.32,1.56-18.22,9.64-22.11,17A38.15,38.15,0,0,0,.36,465.1c2.49,18.55,17.75,31.3,36.34,32.08q114.43,4.8,229,2,115-2.85,229.63-13.45,64.41-5.94,128.55-14.34l-9.84-72.68L496.93,420.84c-38,7.18-76.17,13.63-113.73,22.69a491.58,491.58,0,0,0-61.59,18.81c-8.84,3.41-17.47,8.2-22.12,17a38.1,38.1,0,0,0-4.39,23.59c1,7.76,4.23,15.79,10.18,21.24,6.81,6.26,16.56,11.8,26.16,10.84l278-27.85,79.43-7.95-9.83-72.68C633.89,435,588.49,442,543,448.17l9.84-1.33C484.77,456,416.51,463,348.2,469.61q-28.92,2.77-57.85,5.5c-10,.94-18.82,3.49-26.16,10.84-6.42,6.41-11.25,16.94-10.84,26.16.92,20.52,16.25,36.4,37,37l107.93,3.08v-74q-55.57,5.61-111.3,9.36-27.62,1.86-55.25,3.25c-16.21.81-33.19,3-49.36.93l9.83,1.32a46.61,46.61,0,0,1-10.46-2.75l8.84,3.73a32.59,32.59,0,0,1-5.59-3.2l7.49,5.78a28.38,28.38,0,0,1-3.69-3.58l5.79,7.49a20.35,20.35,0,0,1-1.53-2.18c-8.29-12.6-21.63-19.71-36.87-17.66-13.74,1.84-27.71,12.23-30.76,26.5-4.37,20.42,1.11,39.46,15.24,54.82,12.63,13.73,30.31,18.69,48.1,20.89,22.39,2.76,45.93,1.22,68.41.09,49.23-2.49,98.28-9.26,146.75-18,46.1-8.34,91.79-18.74,137.41-29.36,24.81-5.77,50.83-11.06,69.18-30.39,18.17-19.14,25.46-44.26,27.35-70,1.17-15.85-.25-32.53-8-46.7-8-14.59-23.28-25.77-39.42-29.53a71.33,71.33,0,0,0-21.84-2c-11.74,1-20,3.67-30.8,8.64-12.49,5.77-23.24,15.72-33,25.33-19.25,19.06-11,55.41,16.33,61.84,23.62,5.56,49.51,5.11,72.19-4.12,15.15-6.16,28-13.95,37.39-27.85,10.7-15.89,10.16-36.22,1.76-52.84-5.86-11.61-17.17-21.08-28.45-27.15a147.4,147.4,0,0,0-33.69-13.28A152.58,152.58,0,0,0,535,323c-14-.11-28.66,1.31-41.25,7.82-20.13,10.41-29.8,34.32-20.89,55.43,6.88,16.28,21.89,25.27,38.45,29.56,18.9,4.89,40.14,4.39,58.63-2,18.32-6.32,36.13-16.62,48.62-31.72,14.8-17.9,23.29-38.08,24.51-61.44,1.1-21-5.58-44.16-17.18-61.67-13.79-20.83-32.86-36.09-56.71-43.88-8.49-2.77-21-1.11-28.51,3.73a40.46,40.46,0,0,0-17,22.11c-14.08,42.35-19.88,91-6.08,134.25,9.13,28.59,25.08,56,54.32,67.24,15.85,6.09,35.53,3.28,49.38-6.39,12.11-8.45,21.49-19,29.71-31.25,13-19.41,19-42.46,21-65.48,1.05-11.74-.21-23.14-1.84-34.78a117.68,117.68,0,0,0-6.66-26.26,185,185,0,0,0-37.68-60.4c-14.66-15.7-32.44-29.17-51.07-39.8-40.59-23.13-86.54-33.8-132.26-41-27.35-4.28-54.18-8.18-81.6-2-16.66,3.76-33.05,12.57-42.3,27.4-11.91,19.09-9.06,43.27,6,59.68,18.42,20.13,48.34,21.24,73.63,23.14a417.73,417.73,0,0,0,67-.36,484,484,0,0,0,74.16-11.92q16.51-4.06,32.66-9.47c11.56-3.87,23.63-7.86,34.21-14,14.33-8.26,26.11-20.77,31.19-36.73,4.78-15,2.61-33.42-6.6-46.41-15.67-22.11-39.79-30.37-65.17-36-49.77-11-102.39-16.68-153-8.93-27.22,4.17-57,14.71-72.72,38.74-10.51,16.1-10.58,37.67-.95,54.15,7.9,13.52,22.5,22.68,37.47,26.38,24.75,6.11,51.93,2.62,76.77-.91a271.16,271.16,0,0,0,63.69-17c13.64-5.51,30-10.89,39.9-22.48s15-26.18,10.84-41.4A45.41,45.41,0,0,0,545,90.92c-26.9-13.8-64.28-15-90.21,2-16.18,10.55-28.09,27.5-27.66,47.49.42,19.72,12.16,36.43,28.68,46.4,10.52,6.34,23.21,10,35.3,11.91,13.42,2.12,26.77,3.54,40.35,2.24,32.65-3.14,80.38-13.89,81.33-54.89.83-36.31-36.1-54.09-65.74-62.65-25.89-7.48-52.35-8.11-78.81-4.23-14.78,2.16-28.75,7.06-40.08,17.17-14.38,12.84-19.79,33.21-15,51.7a46.7,46.7,0,0,0,20.92,27.6c11.53,6.82,24.74,7.74,37.6,4.91,12.65-2.79,25.23-9,36.48-15.31s22.51-14.15,31.68-23.15c18.83-18.5,19-48-.16-66.39-11-10.56-25.75-16.76-39.72-22.26a216,216,0,0,0-31.64-9.28A651.55,651.55,0,0,0,392,31.81c-22.78-2.4-46.69-4.8-69.52-2-15.69,1.9-30.5,5.06-44.36,13.2a86.31,86.31,0,0,0-30.05,29.46,68.92,68.92,0,0,0-8.27,50.31c4.31,19.22,21.86,34.73,41.12,37.68,25.63,3.93,52.77.66,77.72-5.92A226.61,226.61,0,0,0,422,126.89c15.64-10,22.44-28.93,15.14-46.21-7.42-17.58-25.33-25.18-43.65-21.42Q327.82,72.73,263.56,91.94l28.51,67.63,30.53-20.86c14.9-10.19,30-20.47,35.12-39,5.88-21.35-4.28-43.4-23.12-54.32-11.76-6.82-26.15-9.06-39.54-8-27.63,2.09-54.34,8.32-79.48,20-29.57,13.78-42.76,48.12-34.06,78.84,9.12,32.2,37.87,51.19,68.32,60.42,18.53,5.62,41.16-6.7,45.52-25.84,4.55-20-6-39.5-25.84-45.51a123.56,123.56,0,0,1-11.67-4.16l8.84,3.73a75.66,75.66,0,0,1-15.93-9.21l7.48,5.78a55.25,55.25,0,0,1-8.56-8.6l5.79,7.49a42.56,42.56,0,0,1-4.95-8.61l3.73,8.84a43.42,43.42,0,0,1-2.5-9.51l1.32,9.83a41.31,41.31,0,0,1-.08-8.32l-1.32,9.84a34.71,34.71,0,0,1,2-7.9L250,123.38a31.07,31.07,0,0,1,3.38-5.86L247.54,125a32.38,32.38,0,0,1,5.37-5.16l-7.49,5.79a55.74,55.74,0,0,1,9.68-5.29l-8.84,3.73a192.59,192.59,0,0,1,47.59-12.85L284,112.55c7.27-.94,14.75-2,22.08-1.13l-9.84-1.32a35,35,0,0,1,8.29,2.19l-8.84-3.73a23.62,23.62,0,0,1,3.88,2.28l-7.49-5.79a18,18,0,0,1,2.21,2.24l-5.79-7.48a9.57,9.57,0,0,1,1.06,1.76l-3.73-8.84a13.58,13.58,0,0,1,.85,3.07L285.36,86a10.61,10.61,0,0,1,0,2.58l1.32-9.84a11.26,11.26,0,0,1-.75,2.7l3.73-8.84a21.57,21.57,0,0,1-2.24,3.64l5.78-7.49a37.73,37.73,0,0,1-4.33,4.15l7.48-5.79c-13.3,10.2-27.76,19.14-41.6,28.6-15.33,10.49-22.61,28.49-15.14,46.21,7,16.5,25.85,26.75,43.65,21.42q64.2-19.2,129.89-32.68L384.61,63a199,199,0,0,1-29.09,15.28l8.83-3.73A198.39,198.39,0,0,1,316,87.74l9.84-1.32C314.37,88,302.34,89,290.75,87.77l9.83,1.32a32.15,32.15,0,0,1-6.9-1.73l8.84,3.73A21.74,21.74,0,0,1,299,89l7.48,5.79a13,13,0,0,1-2-2l5.78,7.49a18.79,18.79,0,0,1-2.2-3.91l3.73,8.83a25.93,25.93,0,0,1-1-4.44l1.32,9.83a34,34,0,0,1,.13-6l-1.32,9.84a38.87,38.87,0,0,1,2.21-8.34L309.38,115a44.72,44.72,0,0,1,5-8.76l-5.78,7.49a53,53,0,0,1,9.4-9.29l-7.49,5.78a58.77,58.77,0,0,1,11.54-6.57l-8.83,3.73a82.45,82.45,0,0,1,19.07-4.87l-9.83,1.33c13.78-1.68,27.77-1,41.6-.23q21.71,1.22,43.27,4.08l-9.83-1.32c28.8,3.87,59,8.52,86,19.75l-8.84-3.73c6.64,2.87,13.3,6.12,19.09,10.51l-7.49-5.79a25.5,25.5,0,0,1,3,3l-5.78-7.49a10.46,10.46,0,0,1,1.38,2.32l-3.73-8.84a7.18,7.18,0,0,1,.58,2.54l-1.32-9.83-.08,1.34,1.32-9.84-.36,1.33L485,92.77a9.6,9.6,0,0,1-1.38,2.38l5.78-7.49a65.32,65.32,0,0,1-9.61,8.5l7.49-5.78a142.77,142.77,0,0,1-31.21,18.1l8.84-3.73c-4.72,1.93-9.52,3.89-14.59,4.67l9.84-1.32a14.3,14.3,0,0,1-3.27,0l9.83,1.32a10.31,10.31,0,0,1-3.12-.88l8.84,3.73a8.68,8.68,0,0,1-2-1.26L478,116.8a9,9,0,0,1-1.52-1.68l5.79,7.49a10.08,10.08,0,0,1-1.09-2l3.73,8.84a17.36,17.36,0,0,1-.84-3.43l1.32,9.84a21.2,21.2,0,0,1,.08-3.65L484.14,142a21,21,0,0,1,1-3.55l-3.73,8.84a18.61,18.61,0,0,1,1.83-3.15l-5.78,7.49a26.19,26.19,0,0,1,3-3L473,154.42a31.57,31.57,0,0,1,6.21-3.55l-8.84,3.73c5.9-2.29,12.16-3.35,18.4-4.23l-9.83,1.32a148,148,0,0,1,38,.07L507,150.44a148.07,148.07,0,0,1,36.6,10.09l-8.84-3.73c5,2.15,9.93,4.36,14.29,7.59l-7.48-5.79a34,34,0,0,1,5.19,5.19L541,156.3a22.9,22.9,0,0,1,2,3.53L539.32,151a10.74,10.74,0,0,1,.7,2.43l-1.32-9.84a9.07,9.07,0,0,1,.06,2.44l1.32-9.83a8.1,8.1,0,0,1-.68,2.41l3.73-8.84-.65,1.18,5.79-7.48a9.93,9.93,0,0,1-2.07,2.27l7.49-5.79a29.56,29.56,0,0,1-5.47,3l8.84-3.73a125.79,125.79,0,0,1-30.26,8.37l9.84-1.33a127.58,127.58,0,0,1-33.13.09l9.83,1.32a100.53,100.53,0,0,1-24-6l8.84,3.73a41.79,41.79,0,0,1-8.46-4.92l7.49,5.79a29,29,0,0,1-3.75-3.76l5.79,7.49a23.34,23.34,0,0,1-2-3.29l3.73,8.84a20,20,0,0,1-1.09-3.71l1.32,9.84a20.1,20.1,0,0,1,0-4l-1.32,9.83a20.81,20.81,0,0,1,1.09-3.77l-3.73,8.84a25,25,0,0,1,2-3.42l-5.79,7.49a30.16,30.16,0,0,1,4.94-4.84l-7.49,5.79a41.31,41.31,0,0,1,7.48-4.2l-8.84,3.73a61,61,0,0,1,12.83-3.34l-9.84,1.32a68,68,0,0,1,17.4,0l-9.83-1.32A67.63,67.63,0,0,1,515.23,158l-8.84-3.73a29.87,29.87,0,0,1,3.58,1.9l-7.49-5.79a9.91,9.91,0,0,1,2,1.75l-5.78-7.49a6.73,6.73,0,0,1,1.25,2.25L496.18,138l.27,1.29-1.32-9.83,0,1.25,1.32-9.83a6.84,6.84,0,0,1-.75,2.37l3.73-8.84-.69,1.12,5.79-7.49a21.3,21.3,0,0,1-2.94,3l7.49-5.78c-4.92,3.61-10.88,5.85-16.46,8.25l8.84-3.73a276.1,276.1,0,0,1-69.66,19l9.83-1.32c-16.18,2.1-33.34,3.69-49.61,1.72l9.83,1.32a49.9,49.9,0,0,1-11.1-2.79l8.83,3.73a29.6,29.6,0,0,1-6.19-3.52l7.49,5.79a22.09,22.09,0,0,1-3.13-3.21l5.79,7.49a20.41,20.41,0,0,1-1.66-2.91l3.73,8.84a21.6,21.6,0,0,1-.95-3.37l1.32,9.84a20.61,20.61,0,0,1,0-4.08l-1.32,9.83a22,22,0,0,1,1-3.82l-3.73,8.84a26,26,0,0,1,2.78-4.65L398.88,164a36.4,36.4,0,0,1,5.14-5l-7.49,5.78a56,56,0,0,1,11.78-6.65l-8.83,3.73a149.85,149.85,0,0,1,36.44-9.46l-9.84,1.32c29.65-3.78,60.14-1.55,89.67,2.34l-9.84-1.32q18.27,2.48,36.32,6.28c10.17,2.16,20.56,4.22,30.21,8.16l-8.84-3.73A54.88,54.88,0,0,1,575,171.94l-7.48-5.78a34.22,34.22,0,0,1,5.2,5.15L567,163.83a27.93,27.93,0,0,1,2.41,4L565.66,159a24.05,24.05,0,0,1,1.37,4.47l-1.32-9.83a24.78,24.78,0,0,1,.14,5l1.32-9.84a23.24,23.24,0,0,1-1.28,5l3.73-8.83a27.47,27.47,0,0,1-2.53,4.44l5.79-7.49a36.31,36.31,0,0,1-5.61,5.68l7.49-5.79a64.17,64.17,0,0,1-13.48,7.67l8.84-3.73c-30,12.47-62.54,19.94-94.61,24.32l9.84-1.32a423.55,423.55,0,0,1-111.8,0l9.84,1.32a56.9,56.9,0,0,1-14.08-3.59l8.83,3.73a31.37,31.37,0,0,1-6.29-3.72l7.48,5.79a25.88,25.88,0,0,1-2.41-2.39l5.79,7.49a18.88,18.88,0,0,1-1.73-2.77l3.73,8.84a16.42,16.42,0,0,1-.9-3.15l1.32,9.84a16.6,16.6,0,0,1,.08-3.66l-1.32,9.84a11.33,11.33,0,0,1,.74-2.49l-3.73,8.84a19.36,19.36,0,0,1,2-3.32l-5.79,7.49A27.49,27.49,0,0,1,380,204l-7.49,5.79a35.06,35.06,0,0,1,7.29-4.16L371,209.36a76.89,76.89,0,0,1,16.76-4.18l-9.83,1.33c13.43-1.7,26.86-.66,40.23,1.11l-9.84-1.32c38.71,5.32,77.8,12.49,114,27.62l-8.84-3.73a214.89,214.89,0,0,1,47.08,27.17l-7.49-5.79a171.23,171.23,0,0,1,29.38,29.07l-5.78-7.49a140.82,140.82,0,0,1,17.81,30.09l-3.73-8.84a118.36,118.36,0,0,1,8.09,29.79l-1.32-9.84a119.77,119.77,0,0,1,.05,29.31l1.32-9.84a108.8,108.8,0,0,1-7,26.6l3.73-8.83a96.42,96.42,0,0,1-11.42,19.94L590,364a81.24,81.24,0,0,1-12.24,12.9l7.49-5.79a34,34,0,0,1-6.71,4.11l8.83-3.73a26.11,26.11,0,0,1-4.42,1.23l9.83-1.32a23.57,23.57,0,0,1-5.63-.06l9.84,1.33a28.42,28.42,0,0,1-5.36-1.65l8.83,3.73a36.42,36.42,0,0,1-6.2-3.85l7.48,5.79a52,52,0,0,1-7.48-7.65l5.78,7.49a93.25,93.25,0,0,1-10.86-19.34l3.73,8.84A133.81,133.81,0,0,1,584,333.5l1.32,9.83a180,180,0,0,1,.31-47.46l-1.32,9.84A253.08,253.08,0,0,1,595,260.6l-45.52,25.84q2.52.82,5,1.81l-8.84-3.73a67.28,67.28,0,0,1,13.59,7.83l-7.49-5.78a73.6,73.6,0,0,1,13,12.94L558.93,292a79.49,79.49,0,0,1,9.35,15.89l-3.73-8.84a77.32,77.32,0,0,1,5.31,19l-1.32-9.83a70.33,70.33,0,0,1,.13,17l1.32-9.83a64.1,64.1,0,0,1-4,15.21l3.73-8.84a65.84,65.84,0,0,1-8.49,14.49l5.79-7.49a73.42,73.42,0,0,1-11.95,11.82l7.49-5.79a78.74,78.74,0,0,1-16.88,9.78l8.84-3.73a77.7,77.7,0,0,1-18.82,5l9.83-1.32a71.89,71.89,0,0,1-16.78,0l9.83,1.32a65.1,65.1,0,0,1-15-3.91l8.83,3.73a24.31,24.31,0,0,1-4.72-2.65l7.49,5.78a8.6,8.6,0,0,1-1.75-1.91l5.79,7.49-.59-1.12,3.73,8.84-.33-1.25,1.32,9.84-.07-1.15L542,379.41a5.51,5.51,0,0,1,.49-2.07l-3.73,8.84.52-.93-5.78,7.49a8.07,8.07,0,0,1,1.49-1.65l-7.49,5.79a19,19,0,0,1,4.23-2.44l-8.84,3.73a31.9,31.9,0,0,1,6.54-1.54L519.54,398a114.53,114.53,0,0,1,29.19,0l-9.84-1.32A115.92,115.92,0,0,1,567,404.37l-8.84-3.73a80.87,80.87,0,0,1,15.42,8.42l-7.48-5.79a37,37,0,0,1,6.17,6l-5.79-7.48a28,28,0,0,1,2.13,3.53l-3.73-8.84a22.56,22.56,0,0,1,1.21,3.87l-1.32-9.84a21.43,21.43,0,0,1,.1,4.16l1.32-9.83a20.66,20.66,0,0,1-1.06,3.92l3.73-8.84a25.78,25.78,0,0,1-2,3.54l5.78-7.49a31.4,31.4,0,0,1-5,5l7.49-5.79a50,50,0,0,1-10.32,5.84l8.84-3.73a90.57,90.57,0,0,1-21.63,5.81l9.83-1.33a90.75,90.75,0,0,1-22.4-.07l9.83,1.33c-2.85-.43-5.67-1-8.48-1.63l16.33,61.84a157.61,157.61,0,0,1,13.6-12.22l-7.49,5.79a66.19,66.19,0,0,1,14.1-8.3l-8.83,3.73a43.9,43.9,0,0,1,9.88-2.61L568.62,431a40.88,40.88,0,0,1,9.38.15l-9.84-1.32a38.4,38.4,0,0,1,7.65,2.11L567,428.2a32.7,32.7,0,0,1,5.62,3.17l-7.49-5.79a28.36,28.36,0,0,1,4.58,4.45l-5.79-7.48a28.55,28.55,0,0,1,2.79,4.78L563,418.5a37,37,0,0,1,2.06,7.95l-1.32-9.83a105.44,105.44,0,0,1-.42,24.47l1.32-9.84a88.94,88.94,0,0,1-5.38,21.26l3.73-8.83a61.18,61.18,0,0,1-7.77,13.49l5.78-7.49a50.93,50.93,0,0,1-8.06,7.95l7.49-5.78a56.82,56.82,0,0,1-11.4,6.43l8.84-3.73c-17.43,7-36.91,9.88-55.16,14.09-19.34,4.46-38.71,8.83-58.12,13-39.08,8.35-78.36,15.77-118,21.16l9.84-1.32c-24.7,3.31-49.51,5.86-74.4,7.26q-18.42,1-36.87,1.22c-12.07.11-24.39.46-36.38-1.05l9.83,1.32a54.62,54.62,0,0,1-11.72-3l8.84,3.73a35.57,35.57,0,0,1-6.88-3.95l7.49,5.79a33.4,33.4,0,0,1-5.24-5.39l5.78,7.49a30.6,30.6,0,0,1-2.89-5.15l3.73,8.84a27.57,27.57,0,0,1-1.2-4.17l1.32,9.83a22.06,22.06,0,0,1,0-5.74l-1.32,9.84.31-1.44-67.63,8.84c6.09,9.26,13.93,17.46,24.08,22.24,11.23,5.29,21.55,7.46,34,8.28,15.67,1,31.78-.76,47.43-1.56q52.32-2.68,104.53-7,29.55-2.46,59.06-5.44c10.05-1,18.77-3.45,26.16-10.83,6.42-6.42,11.25-17,10.84-26.17-.92-20.52-16.26-36.4-37-37l-107.93-3.08v74c107.23-10.13,214.47-20.47,321-36.52q43.8-6.6,87.37-14.69c8.31-1.56,18.22-9.65,22.11-17a38.12,38.12,0,0,0,4.39-23.59c-1-7.76-4.23-15.79-10.17-21.25-6.82-6.25-16.56-11.79-26.17-10.83l-278,27.84-79.44,8,9.84,72.68c35.48-13.67,72.65-21.89,109.89-29.1,38.7-7.5,77.46-14.68,116.19-22l66.37-12.55c8.32-1.57,18.22-9.63,22.11-17a38.15,38.15,0,0,0,4.4-23.6c-1-7.76-4.24-15.78-10.18-21.24-6.69-6.14-16.71-12.07-26.16-10.84q-113.58,14.83-228,22.07Q281.12,426.69,166,426.19q-64.66-.29-129.3-3l9.83,72.68c72-13.53,144.2-25.6,216.36-38,71.81-12.35,143.58-25,214.92-39.9,40.44-8.42,80.72-17.55,120.76-27.66,17.89-4.51,28.88-22.91,26.51-40.6-1.05-7.76-4.24-15.78-10.18-21.24-6.8-6.24-16.58-11.84-26.16-10.84C499.13,327,410.79,344.69,322,359.49c-24.24,4-48.53,7.82-72.89,11.12l9.83-1.32c-63,8.45-126.61,13.42-190.21,10.34l9.83,72.68c75-19.57,151.38-33.19,227.84-45.68,76.19-12.43,152.59-23.8,228.29-39,42.61-8.57,85-18.41,126.79-30.26A37.06,37.06,0,0,0,688,296.74c-2.4-17.84-17.81-32.3-36.34-32.09C537.87,266,425,282.73,312.66,299.1c-31.12,4.53-62.24,9.06-93.41,13.25l9.84-1.32c-39.17,5.25-78.42,10-117.78,13.49l9.83,72.68,364-75.79,103.71-21.6c8.38-1.75,18.14-9.49,22.11-17a38.1,38.1,0,0,0,4.39-23.59C613,241.64,597.48,226.54,579,227.13c-70.15,2.23-140.23,6.34-210.21,11.65S228.85,250.56,159,257.46q-59.31,5.85-118.61,12l9.83,72.67c121.88-27.43,244.18-53.44,365.43-83.54Q466.18,246,516.32,231.89a37.06,37.06,0,0,0,26.5-40.6c-2.51-18.68-17.74-31.12-36.34-32.08A2218.61,2218.61,0,0,0,189,165.54q-44.24,4.07-88.28,9.91l9.83,72.68C201.2,229,292.13,209.77,380.36,181q37.41-12.19,73.95-26.86c9.29-3.74,16.86-8,22.11-17,4.65-7.93,6.61-19.62,3.73-28.51s-8.44-17.59-17-22.11c-9.22-4.88-18.25-5.63-28.51-3.73C388.71,91.28,342.76,99.71,296.46,106l9.84-1.33c-57.82,7.77-116.21,12-174.52,8.47l9.83,72.67q53.82-13.2,107-28.67c35.13-10.22,70.41-20.65,104.82-33.12,20.71-7.5,41.4-16.09,59.84-28.26,15.49-10.21,22.53-28.7,15.14-46.2-6.86-16.27-26-27.08-43.65-21.42A644.3,644.3,0,0,1,275.5,52.89l9.83-1.32-1.88.25,31.95,55.67A93.76,93.76,0,0,1,324,94.1l-5.78,7.49A99.35,99.35,0,0,1,335,84.86l-7.49,5.79A108.4,108.4,0,0,1,350.37,77.3L341.53,81a110.69,110.69,0,0,1,26.84-7.4L358.54,75a102.69,102.69,0,0,1,26.39-.1l-9.84-1.33A93.46,93.46,0,0,1,398,79.76L389.17,76l1.23.53c9.47,4.12,18.11,6.59,28.51,3.73,8.58-2.36,17.88-9,22.11-17,4.54-8.59,6.81-19,3.73-28.51-2.76-8.54-8.39-18.37-17-22.11Z"/></g></g></svg>