<svg xmlns="http://www.w3.org/2000/svg" viewBox="0 0 511.4 511.4"><defs><style>.cls-1,.cls-4{fill:#3079ba;}.cls-2,.cls-3{fill:#fff;}.cls-2,.cls-4{stroke:#000;stroke-miterlimit:10;}</style></defs><title>back</title><g id="Layer_2" data-name="Layer 2"><g id="Hair"><path class="cls-1" d="M255.7,510.9A255.19,255.19,0,0,1,75.25,75.25a255.19,255.19,0,1,1,360.9,360.9A253.52,253.52,0,0,1,255.7,510.9Z"/><path d="M255.7,1A254.63,254.63,0,0,1,435.8,435.8,254.7,254.7,0,1,1,156.56,21,252.93,252.93,0,0,1,255.7,1m0-1C114.48,0,0,114.48,0,255.7S114.48,511.4,255.7,511.4,511.4,396.92,511.4,255.7,396.92,0,255.7,0Z"/><rect class="cls-2" x="235.07" y="129.59" width="53.94" height="24.03" rx="7.52"/><rect x="254.65" y="129.59" width="13.74" height="24.03"/><rect class="cls-3" x="256.57" y="131.76" width="4.38" height="9.84" rx="1.37"/><rect class="cls-2" x="335.64" y="129.59" width="53.94" height="24.03" rx="7.52"/><rect x="355.21" y="129.59" width="13.74" height="24.03"/><rect class="cls-3" x="357.14" y="131.76" width="4.38" height="9.84" rx="1.37"/><ellipse class="cls-2" cx="311.94" cy="191.37" rx="12.72" ry="18.23"/><path class="cls-4" d="M178.6,201c-7,38.35,40.4,65.69,40.4,65.69l16.93-23.58C198.2,228,202.18,189.6,202.18,189.6"/><path class="cls-4" d="M214.9,253.86a19.23,19.23,0,0,0-.85,5.86,19.55,19.55,0,1,0,7.62-15.64"/></g></g></svg>