<svg xmlns="http://www.w3.org/2000/svg" viewBox="0 0 233.1 61.76"><title>hair</title><g id="Layer_2" data-name="Layer 2"><g id="Hair"><g id="Hair-2" data-name="Hair"><path d="M9.62,58.71l17-5.07,2.06-39.82S10.45,14.2,0,20.19Z"/><path d="M28.6,52.86l17-5.06L47.66,8S29.43,8.35,19,14.34Z"/><path d="M47.65,47.21l17-5.07L66.72,2.32S48.48,2.7,38,8.69Z"/><path d="M65.74,43.59l17.7-1.24L94.14,3.94S76.26.33,64.76,3.89Z"/><path d="M85.06,41.27,102.76,40l10.7-38.41S95.59-2,84.08,1.57Z"/><path d="M103.66,39.92l17.69,1.25,16-36.54S120.12-1.45,108.23.48Z"/><path d="M121.19,42.24l17.7,1.25L154.85,7S137.65.87,125.76,2.8Z"/><path d="M138,43.12l17.57,2.51,18.52-35.31S157.42,3,145.42,4.11Z"/><path d="M155.63,45.42l17.16,4.49,22.43-33S179.44,7.8,167.39,7.5Z"/><path d="M175.42,50.32l17.16,4.49,22.43-33s-15.78-9.14-27.82-9.44Z"/><path d="M189.83,54.84l16.34,6.92,26.93-29.4S218.8,21,206.93,19Z"/></g></g></g></svg>