<svg xmlns="http://www.w3.org/2000/svg" viewBox="0 0 199.32 162.62"><defs><style>.cls-1{fill:#3079ba;}.cls-1,.cls-4,.cls-5,.cls-7,.cls-9{stroke:#000;stroke-miterlimit:10;}.cls-2,.cls-4{fill:#725fa2;}.cls-3{fill:#fff;}.cls-5{fill:#ee7442;}.cls-6,.cls-7{fill:#fce74e;}.cls-8,.cls-9{fill:#4aa794;}</style></defs><title>bubble</title><g id="Layer_2" data-name="Layer 2"><g id="Commute"><rect class="cls-1" x="0.5" y="0.5" width="198.32" height="84.53" rx="37.85"/><rect class="cls-1" x="77.3" y="94.94" width="44.73" height="36.63" rx="18.32"/><rect class="cls-1" x="87.07" y="141.49" width="25.19" height="20.63" rx="9.7"/><rect class="cls-2" x="100.89" y="27.03" width="13.55" height="15.65"/><path d="M113.94,27.53V42.18H101.39V27.53h12.55m1-1H100.39V43.18h14.55V26.53Z"/><rect class="cls-3" x="87.01" y="27.03" width="13.55" height="15.65"/><path d="M100.06,27.53V42.18H87.51V27.53h12.55m1-1H86.51V43.18h14.55V26.53Z"/><rect class="cls-4" x="78.4" y="42.77" width="45.31" height="16.65"/><circle class="cls-4" cx="86.51" cy="59.42" r="5.54"/><circle class="cls-4" cx="115.6" cy="59.42" r="5.54"/><circle class="cls-5" cx="93.78" cy="36.89" r="5.88"/><rect class="cls-6" x="152.22" y="27.03" width="13.55" height="15.65"/><path d="M165.27,27.53V42.18H152.72V27.53h12.55m1-1H151.72V43.18h14.55V26.53Z"/><rect class="cls-3" x="138.34" y="27.03" width="13.55" height="15.65"/><path d="M151.38,27.53V42.18H138.84V27.53h12.54m1-1H137.84V43.18h14.54V26.53Z"/><rect class="cls-7" x="129.73" y="42.77" width="45.31" height="16.65"/><circle class="cls-7" cx="137.84" cy="59.42" r="5.54"/><circle class="cls-7" cx="166.93" cy="59.42" r="5.54"/><circle class="cls-5" cx="145.11" cy="36.89" r="5.88"/><rect class="cls-8" x="49.37" y="27.03" width="13.55" height="15.65"/><path d="M62.42,27.53V42.18H49.87V27.53H62.42m1-1H48.87V43.18H63.42V26.53Z"/><rect class="cls-3" x="35.48" y="27.03" width="13.55" height="15.65"/><path d="M48.53,27.53V42.18H36V27.53H48.53m1-1H35V43.18H49.53V26.53Z"/><rect class="cls-9" x="26.87" y="42.77" width="45.31" height="16.65"/><circle class="cls-9" cx="34.98" cy="59.42" r="5.54"/><circle class="cls-9" cx="64.08" cy="59.42" r="5.54"/><circle class="cls-5" cx="42.26" cy="36.89" r="5.88"/></g></g></svg>