<svg  id="landingBody" xmlns="http://www.w3.org/2000/svg" viewBox="0 0 320.92 320.92"><defs><style>.cls-1{fill:#ee7442;stroke:#000;stroke-miterlimit:10;}.cls-2{fill:#fff;}</style></defs><title>landingBody</title><g id="Layer_2" data-name="Layer 2"><g id="Character"><g><circle id="body" class="cls-1" cx="160.46" cy="160.46" r="159.96"/><g id="eye-frame"><path class="cls-2" d="M208.79,93.84a7.55,7.55,0,0,1-7.52,7.52H182.56a7.52,7.52,0,0,1,0-15h18.71A7.54,7.54,0,0,1,208.79,93.84Z"/><path d="M201.27,101.86H182.56a8,8,0,0,1,0-16h18.71a8,8,0,0,1,0,16Zm-18.71-15a7,7,0,0,0,0,14h18.71a7,7,0,0,0,0-14Z"/></g><g id="eye-frame-2" data-name="eye-frame"><path class="cls-2" d="M145.87,93.84a7.55,7.55,0,0,1-7.51,7.52H119.65a7.52,7.52,0,0,1,0-15h18.71A7.53,7.53,0,0,1,145.87,93.84Z"/><path d="M138.36,101.86H119.65a8,8,0,0,1,0-16h18.71a8,8,0,0,1,0,16Zm-18.71-15a7,7,0,0,0,0,14h18.71a7,7,0,0,0,0-14Z"/></g></g></g></g></svg>
