<svg xmlns="http://www.w3.org/2000/svg" viewBox="0 0 185.33 213.79"><defs><style>.cls-1,.cls-2{fill:#4aa794;}.cls-2,.cls-4{stroke:#fff;stroke-miterlimit:10;}.cls-3,.cls-4{fill:#e05c64;}</style></defs><title>cards</title><g id="Layer_2" data-name="Layer 2"><g id="UNO"><rect class="cls-1" x="-32.55" y="46.42" width="182.49" height="99.38" transform="translate(-42.56 145.39) rotate(-84.54)"/><path d="M18.37,1.09l97.93,9.37L99,191.13,1.09,181.76,18.37,1.09M17.47,0,0,182.66l99.92,9.56L117.39,9.56,17.47,0Z"/><ellipse class="cls-2" cx="58.7" cy="96.11" rx="77.94" ry="29.84" transform="translate(-53.44 106.47) rotate(-63.87)"/><rect class="cls-3" x="18.44" y="61.46" width="182.49" height="99.38" transform="translate(-29.49 181.97) rotate(-72.35)"/><path d="M90.32,9.76l93.75,29.83-55,173L35.29,182.71l55-173M89.67,8.5,34,183.36l95.65,30.43L185.33,38.94,89.67,8.5Z"/><ellipse class="cls-4" cx="109.68" cy="111.15" rx="77.94" ry="29.84" transform="translate(-45.53 128.29) rotate(-51.68)"/></g></g></svg>