<svg xmlns="http://www.w3.org/2000/svg" viewBox="0 0 259.34 97.43"><defs><style>.cls-1{fill:#3079ba;stroke:#000;stroke-miterlimit:10;}</style></defs><title>hands</title><g id="Layer_2" data-name="Layer 2"><g id="UNO"><path class="cls-1" d="M1.2,18.74c-7,38.35,40.4,65.7,40.4,65.7L58.54,60.85C20.81,45.74,24.79,7.39,24.79,7.39"/><path class="cls-1" d="M37.5,71.65a19.87,19.87,0,0,0-.85,5.86,19.58,19.58,0,1,0,7.63-15.63"/><path class="cls-1" d="M258.14,11.4c7,38.35-40.4,65.7-40.4,65.7L200.8,53.51C238.53,38.4,234.55.05,234.55.05"/><path class="cls-1" d="M221.83,64.31a19.23,19.23,0,0,1,.85,5.86,19.55,19.55,0,1,1-7.62-15.63"/></g></g></svg>