<svg xmlns="http://www.w3.org/2000/svg" viewBox="0 0 218.49 316.47"><defs><style>.cls-1{fill:#ec50a8;}.cls-2{fill:#725fa2;stroke:#000;stroke-miterlimit:10;}</style></defs><title>cup-top</title><g id="Layer_2" data-name="Layer 2"><g id="Boba"><circle class="cls-1" cx="109.25" cy="207.22" r="108.75" transform="translate(-114.53 137.94) rotate(-45)"/><path d="M109.25,99a108.23,108.23,0,1,1-76.55,31.7A107.56,107.56,0,0,1,109.25,99m0-1A109.25,109.25,0,1,0,218.49,207.22,109.24,109.24,0,0,0,109.25,98Z"/><path class="cls-2" d="M96.72,20l25.12,179.63v-.13a16.87,16.87,0,0,1-33.41,4.67l0,.13L62.7,20.27S78.05,18.72,80.78.07C80.78.07,79.18,13.72,96.72,20Z"/></g></g></svg>