<svg xmlns="http://www.w3.org/2000/svg" viewBox="0 0 262.75 114.92"><defs><style>.cls-1,.cls-2{fill:#fff;}.cls-2,.cls-3{stroke:#000;stroke-miterlimit:10;}.cls-3{fill:none;}</style></defs><title>eyes</title><g id="Layer_2" data-name="Layer 2"><g id="Boba"><rect class="cls-1" x="0.5" y="1" width="90.55" height="39.79" rx="7.02"/><path d="M84,1.5A6.52,6.52,0,0,1,90.55,8V33.77A6.52,6.52,0,0,1,84,40.29H7.52A6.52,6.52,0,0,1,1,33.77V8A6.52,6.52,0,0,1,7.52,1.5H84m0-1H7.52A7.54,7.54,0,0,0,0,8V33.77a7.54,7.54,0,0,0,7.52,7.52H84a7.53,7.53,0,0,0,7.51-7.52V8A7.53,7.53,0,0,0,84,.5Z"/><rect x="19.66" y="0.5" width="23.32" height="40.79"/><rect class="cls-1" x="22.93" y="4.19" width="7.43" height="16.71" rx="1.37"/><rect class="cls-2" x="170.7" y="0.5" width="91.55" height="40.79" rx="7.52"/><rect x="190.36" y="0.5" width="23.32" height="40.79"/><rect class="cls-1" x="193.63" y="4.19" width="7.43" height="16.71" rx="1.37"/><path class="cls-3" d="M102,94a20.47,20.47,0,0,1-40.94,0"/><path class="cls-3" d="M102.66,94a20.47,20.47,0,0,0,40.93,0"/></g></g></svg>