<svg xmlns="http://www.w3.org/2000/svg" viewBox="0 0 164.08 375.12"><defs><style>.cls-1{fill:#ee7442;stroke:#000;stroke-miterlimit:10;}</style></defs><title>legs</title><g id="Layer_2" data-name="Layer 2"><g id="Pants"><path class="cls-1" d="M15,27.27S1.11,49.45.52,83.55,15,123.48,15,152.71,2.9,178,2.9,209.2,15,236.48,15,263.75,6.74,288.63,6.74,322.2,15,358.75,15,358.75H63.15S78,345.57,75.6,314.4,63,293,63.08,260.83s13.63-23.38,12.78-54.55-9.69-21.43-12.72-56.5,12.39-30.2,12.75-64.29S63.15.75,63.15.75Z"/><path class="cls-1" d="M25.39,342.89c-10.26,0-18.65,6.31-18.65,14v3.65c0,7.72,8.39,14,18.65,14H52.75c10.26,0,18.65-6.32,18.65-14v-3.65c0-7.73-8.39-14-18.65-14"/><path class="cls-1" d="M149.09,27.27S163,49.45,163.56,83.55s-14.47,39.93-14.47,69.16S161.18,178,161.18,209.2s-12.09,27.28-12.09,54.55,8.25,24.88,8.25,58.45-8.25,36.55-8.25,36.55H100.93S86.1,345.57,88.48,314.4,101.05,293,101,260.83s-13.62-23.38-12.77-54.55,9.68-21.43,12.72-56.5-12.39-30.2-12.76-64.29S100.93.75,100.93.75Z"/><path class="cls-1" d="M112.19,342.89c-10.25,0-18.64,6.31-18.64,14v3.65c0,7.72,8.39,14,18.64,14h27.37c10.25,0,18.64-6.32,18.64-14v-3.65c0-7.73-8.39-14-18.64-14"/></g></g></svg>