<svg xmlns="http://www.w3.org/2000/svg" viewBox="0 0 270.73 267.38"><defs><style>.cls-1{fill:#725fa2;}.cls-1,.cls-2,.cls-3{stroke:#000;stroke-miterlimit:10;}.cls-2{fill:#e05c64;}.cls-3,.cls-4{fill:#fff;}</style></defs><title>pot</title><g id="Layer_2" data-name="Layer 2"><g id="Garlic"><path class="cls-1" d="M266.32,4.41a13.36,13.36,0,0,1,0,18.88L176.65,113,157.77,94.08,247.44,4.41A13.36,13.36,0,0,1,266.32,4.41Z"/><path class="cls-1" d="M166.25,91.81A103,103,0,0,1,20.62,237.44c31.4,30.39,88.73,22.91,128.63-17S196.64,123.21,166.25,91.81Z"/><path class="cls-2" d="M165.52,91.08c.25.24.49.48.73.73,30.39,31.4,22.9,88.73-17,128.63S52,267.83,20.62,237.44l-.74-.73-.72-.73c-30.39-31.4-22.91-88.74,17-128.64s97.24-47.38,128.64-17Z"/><rect class="cls-3" x="45.63" y="170.66" width="33.74" height="15.03" rx="7.52" transform="translate(-107.69 96.38) rotate(-45)"/><rect x="54.43" y="174.43" width="8.59" height="15.03" transform="translate(-111.45 94.82) rotate(-45)"/><rect class="cls-4" x="53.97" y="177.91" width="2.74" height="6.16" rx="1.37" transform="translate(-111.77 92.14) rotate(-45)"/><rect class="cls-3" x="90.11" y="126.17" width="33.74" height="15.03" rx="7.52" transform="translate(-63.2 114.81) rotate(-45)"/><rect x="98.92" y="129.94" width="8.59" height="15.03" transform="translate(-66.97 113.25) rotate(-45)"/><rect class="cls-4" x="98.45" y="133.42" width="2.74" height="6.16" rx="1.37" transform="translate(-67.28 110.56) rotate(-45)"/><polygon class="cls-3" points="109.02 169.31 109.02 180.56 98.45 180.56 98.28 169.69 109.02 169.31"/></g></g></svg>