<svg xmlns="http://www.w3.org/2000/svg" viewBox="0 0 163.02 382.61"><defs><style>.cls-1{fill:#dbd1d1;}.cls-1,.cls-2,.cls-3{stroke:#000;stroke-miterlimit:10;}.cls-2{fill:#4aa794;}.cls-3{fill:#ee7442;}</style></defs><title>veggie</title><g id="Layer_2" data-name="Layer 2"><g id="Garlic"><circle class="cls-1" cx="15.17" cy="46.4" r="14.67"/><path class="cls-1" d="M29.85,46.4V1.12S.1,27.72.5,46.4,29.85,46.4,29.85,46.4Z"/><circle class="cls-1" cx="104.12" cy="119.68" r="14.67"/><path class="cls-1" d="M93.58,129.89,62.08,97.35s39.87-1.58,52.58,12.13S93.58,129.89,93.58,129.89Z"/><rect class="cls-2" x="127.88" y="175.39" width="18.66" height="50.72" transform="translate(-100.78 150.86) rotate(-43.81)"/><circle class="cls-2" cx="116.42" cy="179.09" r="16.99"/><circle class="cls-2" cx="141.86" cy="181.07" r="16.99"/><circle class="cls-2" cx="117.34" cy="204.58" r="16.99"/><rect class="cls-2" x="81.3" y="325.63" width="18.66" height="50.72" transform="translate(412.83 184.88) rotate(77.2)"/><circle class="cls-2" cx="119.9" cy="344.35" r="16.99"/><circle class="cls-2" cx="105.1" cy="365.13" r="16.99"/><circle class="cls-2" cx="97.58" cy="332" r="16.99"/><path class="cls-3" d="M75.28,243.7a9.39,9.39,0,0,1-13.29,0l-.05.05L38.42,220.23l0,0a9.4,9.4,0,0,1,13.29-13.3l.05,0,23.52,23.52,0,0A9.4,9.4,0,0,1,75.28,243.7Z"/><path class="cls-3" d="M135,301.27a9.4,9.4,0,0,1-4.5-12.51l-.06,0,14.16-30.1.06,0a9.41,9.41,0,0,1,17,8l.05,0-14.16,30.1-.06,0A9.41,9.41,0,0,1,135,301.27Z"/></g></g></svg>