<svg xmlns="http://www.w3.org/2000/svg" viewBox="0 0 213.33 323.27"><defs><style>.cls-1{fill:#725fa2;}.cls-1,.cls-2{stroke:#000;stroke-miterlimit:10;}.cls-2{fill:#4aa794;}</style></defs><title>grape</title><g id="Layer_2" data-name="Layer 2"><g id="Grapes"><circle class="cls-1" cx="39.27" cy="169.38" r="33.63"/><circle class="cls-1" cx="106.53" cy="169.38" r="33.63"/><circle class="cls-1" cx="173.8" cy="169.38" r="33.63"/><circle class="cls-1" cx="72.9" cy="229.02" r="33.63"/><circle class="cls-1" cx="140.16" cy="229.02" r="33.63"/><circle class="cls-1" cx="106.53" cy="289.14" r="33.63"/><rect class="cls-2" x="96.73" y="0.5" width="19.38" height="135.25"/><path class="cls-2" d="M57.69,160.48A57.15,57.15,0,0,1,2.44,175.3a57.22,57.22,0,0,1,70.07-70.07A57.16,57.16,0,0,1,57.69,160.48Z"/><path class="cls-2" d="M155.64,160.48a57.15,57.15,0,0,0,55.25,14.82,57.22,57.22,0,0,0-70.07-70.07A57.16,57.16,0,0,0,155.64,160.48Z"/><path class="cls-2" d="M155.81,115.51a50.94,50.94,0,0,0-49.27-13.21h0a51,51,0,0,0-62.48,62.49,51.17,51.17,0,0,0,38.71-5.1,51.14,51.14,0,0,0,23.77,31,51.09,51.09,0,0,0,23.78-31,51.17,51.17,0,0,0,38.71,5.1A51,51,0,0,0,155.81,115.51Z"/></g></g></svg>