<svg xmlns="http://www.w3.org/2000/svg" viewBox="0 0 247.79 247.79"><defs><style>.cls-1{fill:#3079ba;}.cls-2,.cls-3{fill:#fff;}.cls-2{stroke:#000;stroke-miterlimit:10;}</style></defs><title>head</title><g id="Layer_2" data-name="Layer 2"><g id="Grapes"><path class="cls-1" d="M123.9,247.29A123.54,123.54,0,0,1,1.73,106.36H58.79L16.14,63.72A123.41,123.41,0,1,1,123.9,247.29Z"/><path d="M123.9,1a122.9,122.9,0,0,1,86.9,209.79A122.9,122.9,0,0,1,1,123.89a123.55,123.55,0,0,1,1.17-17H60l-1.7-1.71L16.76,63.64A123.07,123.07,0,0,1,123.9,1m0-1A123.86,123.86,0,0,0,15.52,63.81l42.06,42.05H1.3A123.91,123.91,0,1,0,123.9,0Z"/><rect class="cls-2" x="62.26" y="38.9" width="50.66" height="22.57" rx="5.82" transform="translate(61.14 -47.23) rotate(45)"/><rect x="74.14" y="31.91" width="12.9" height="22.57" transform="translate(54.15 -44.34) rotate(45)"/><rect class="cls-3" x="79.98" y="33.47" width="4.11" height="9.24" rx="1.06" transform="translate(50.97 -46.85) rotate(45)"/></g></g></svg>