<svg xmlns="http://www.w3.org/2000/svg" viewBox="0 0 287.88 612.82"><defs><style>.cls-1{fill:none;}.cls-1,.cls-3,.cls-4{stroke:#000;stroke-miterlimit:10;}.cls-2,.cls-3{fill:#ee7442;}.cls-4,.cls-5{fill:#fff;}</style></defs><title>cat</title><g id="Layer_2" data-name="Layer 2"><g id="Cat"><path class="cls-1" d="M177.05,612.32a110.33,110.33,0,1,0,0-220.65"/><circle class="cls-2" cx="136" cy="309.85" r="109.83" transform="translate(-179.27 186.92) rotate(-45)"/><path d="M136,200.53a109.34,109.34,0,1,1-77.3,32,108.58,108.58,0,0,1,77.3-32m0-1A110.33,110.33,0,1,0,246.33,309.85,110.33,110.33,0,0,0,136,199.53Z"/><polygon class="cls-3" points="26.08 141.95 167.35 141.95 26.6 1.2 26.08 141.95"/><polygon class="cls-3" points="245.63 141.95 104.36 141.95 245.11 1.2 245.63 141.95"/><circle class="cls-2" cx="136" cy="141.54" r="109.83" transform="translate(-33 241.39) rotate(-76.72)"/><path d="M136,32.22a109.32,109.32,0,0,1,77.3,186.63A109.32,109.32,0,1,1,58.7,64.24a108.58,108.58,0,0,1,77.3-32m0-1A110.33,110.33,0,1,0,246.33,141.54,110.33,110.33,0,0,0,136,31.22Z"/><polyline class="cls-1" points="136 179.26 120.18 195.08 103.15 178.05"/><polyline class="cls-1" points="136 179.26 151.82 195.08 168.85 178.05"/><polygon points="127.11 170.34 144.89 170.34 136 179.23 127.11 170.34"/><rect class="cls-4" x="47.23" y="116.07" width="61.98" height="27.62" rx="12"/><rect x="60.54" y="116.07" width="15.79" height="27.62"/><rect class="cls-5" x="62.75" y="118.56" width="5.03" height="11.31" rx="2.51"/><rect class="cls-4" x="162.79" y="116.07" width="61.98" height="27.62" rx="12"/><rect x="176.1" y="116.07" width="15.79" height="27.62"/><rect class="cls-5" x="178.31" y="118.56" width="5.03" height="11.31" rx="2.51"/><path class="cls-4" d="M272,168.27h0Z"/><path class="cls-4" d="M272,174.8h0Z"/><path class="cls-4" d="M272,181.32h0Z"/><path class="cls-4" d="M79.57,168.27h0Z"/><path class="cls-4" d="M79.57,174.8h0Z"/><path class="cls-4" d="M79.57,181.32h0Z"/><rect class="cls-3" x="145.72" y="398.32" width="46.34" height="21.86" rx="10.93"/><line class="cls-3" x1="168.89" y1="420.18" x2="168.89" y2="409.25"/><line class="cls-3" x1="178.4" y1="420.18" x2="178.4" y2="409.25"/><line class="cls-3" x1="159.71" y1="420.18" x2="159.71" y2="409.25"/><rect class="cls-3" x="79.94" y="398.32" width="46.34" height="21.86" rx="10.93"/><line class="cls-3" x1="103.11" y1="420.18" x2="103.11" y2="409.25"/><line class="cls-3" x1="112.62" y1="420.18" x2="112.62" y2="409.25"/><line class="cls-3" x1="93.93" y1="420.18" x2="93.93" y2="409.25"/></g></g></svg>