<svg xmlns="http://www.w3.org/2000/svg" viewBox="0 0 320.92 320.92"><defs><style>.cls-1{fill:#ee7442;}.cls-1,.cls-2,.cls-4{stroke:#000;stroke-miterlimit:10;}.cls-2,.cls-3{fill:#fff;}.cls-4{fill:none;}</style></defs><title>char-1</title><g id="Layer_2" data-name="Layer 2"><g id="Character"><circle class="cls-1" cx="160.46" cy="160.46" r="159.96"/><rect class="cls-2" x="112.13" y="86.32" width="33.74" height="15.03" rx="7.52"/><rect x="119.38" y="86.32" width="8.59" height="15.03"/><rect class="cls-3" x="120.58" y="87.68" width="2.74" height="6.16" rx="1.37"/><rect class="cls-2" x="175.05" y="86.32" width="33.74" height="15.03" rx="7.52"/><rect x="182.29" y="86.32" width="8.59" height="15.03"/><rect class="cls-3" x="183.5" y="87.68" width="2.74" height="6.16" rx="1.37"/><path class="cls-1" d="M79.75,174.41s-4,38.35,33.75,53.46L96.57,251.45s-47.38-27.34-40.4-65.69"/><path class="cls-1" d="M92.47,238.67a19.55,19.55,0,1,0,6.77-9.78"/><path class="cls-1" d="M241.17,174.41s4,38.35-33.75,53.46l16.94,23.58s47.37-27.34,40.4-65.69"/><path class="cls-1" d="M228.45,238.67a19.23,19.23,0,0,1,.85,5.86,19.55,19.55,0,1,1-7.62-15.64"/><polyline class="cls-4" points="168.18 120.47 160.22 128.42 152.75 120.95"/></g></g></svg>